<svg width="332" height="518" viewBox="0 0 332 518" fill="none" xmlns="http://www.w3.org/2000/svg">
<path d="M267.306 331.098C267.306 333.282 266.541 335.376 265.18 336.92C263.818 338.464 261.972 339.332 260.047 339.332H147.221C145.296 339.332 143.45 338.464 142.088 336.92C140.727 335.376 139.962 333.282 139.962 331.098C139.962 328.914 140.727 326.82 142.088 325.276C143.45 323.732 145.296 322.864 147.221 322.864H260.047C261.972 322.864 263.818 323.732 265.18 325.276C266.541 326.82 267.306 328.914 267.306 331.098Z" fill="white" stroke="#4D6EAB" stroke-width="5" stroke-miterlimit="10"/>
<path d="M226.951 352.596H184.484C183.121 352.596 181.813 351.982 180.85 350.889C179.886 349.796 179.344 348.313 179.344 346.767V339.332H232.087V346.771C232.086 348.316 231.545 349.797 230.582 350.889C229.619 351.981 228.313 352.595 226.951 352.596Z" fill="white" stroke="#4D6EAB" stroke-width="5" stroke-miterlimit="10"/>
<path d="M200.153 453.492H211.264V352.596H200.153V453.492Z" fill="white" stroke="#4D6EAB" stroke-width="5" stroke-miterlimit="10"/>
<path d="M199.416 479.518H212.008C214.461 479.518 216.45 477.262 216.45 474.479V458.531C216.45 455.748 214.461 453.492 212.008 453.492H199.416C196.963 453.492 194.974 455.748 194.974 458.531V474.479C194.974 477.262 196.963 479.518 199.416 479.518Z" fill="white" stroke="#4D6EAB" stroke-width="5" stroke-miterlimit="10"/>
<path d="M254.882 502.96C254.882 496.743 252.704 490.78 248.828 486.384C244.952 481.988 239.695 479.518 234.214 479.518H177.206C171.725 479.518 166.468 481.988 162.592 486.384C158.716 490.78 156.539 496.743 156.539 502.96" stroke="#573C7F" stroke-width="5" stroke-miterlimit="10"/>
<path d="M255.255 515.137C259.828 515.137 263.535 510.933 263.535 505.747C263.535 500.56 259.828 496.356 255.255 496.356C250.683 496.356 246.976 500.56 246.976 505.747C246.976 510.933 250.683 515.137 255.255 515.137Z" fill="white" stroke="#4D6EAB" stroke-width="5" stroke-miterlimit="10"/>
<path d="M156.016 515.137C160.589 515.137 164.295 510.933 164.295 505.747C164.295 500.56 160.589 496.356 156.016 496.356C151.444 496.356 147.737 500.56 147.737 505.747C147.737 510.933 151.444 515.137 156.016 515.137Z" fill="white" stroke="#4D6EAB" stroke-width="5" stroke-miterlimit="10"/>
<path d="M206.008 515.137C210.58 515.137 214.287 510.933 214.287 505.747C214.287 500.56 210.58 496.356 206.008 496.356C201.435 496.356 197.729 500.56 197.729 505.747C197.729 510.933 201.435 515.137 206.008 515.137Z" fill="white" stroke="#4D6EAB" stroke-width="5" stroke-miterlimit="10"/>
<path d="M98.0792 466.176C94.3842 476.118 91.0194 484.269 88.4533 489.617C86.544 493.594 83.2192 516.788 65.7387 507.443C65.1216 507.114 72.6351 504.915 75.0053 485.727C75.8353 479 76.5963 472.511 77.2883 466.262C84.1267 466.789 92.8016 466.468 98.0792 466.176Z" fill="#FFCFC9"/>
<path d="M94.3007 516.788C94.3007 516.788 101.339 489.164 91.9269 484.948C88.9215 483.602 85.2773 487.007 84.3045 498.633C83.4515 508.797 70.3593 510.374 69.1252 503.804C69.1252 503.804 53.0747 507.509 53.0747 516.788H94.3007Z" fill="#3F4D79"/>
<path d="M102.83 465.863C102.83 465.863 83.3898 467.439 73.165 465.789C73.165 465.789 59.59 305.17 61.619 288.645C64.0618 268.765 122.413 251.145 152.579 245.558L158.136 217.012C158.136 217.012 198.948 216.189 221.993 216.189C221.993 216.189 246.675 266.003 244.134 298.937C241.593 331.872 188.375 324.396 117.302 324.396C117.302 324.396 138.971 374.008 102.83 465.863Z" fill="#573C7F"/>
<path d="M162.052 466.958C156.645 467.503 151.205 467.453 145.806 466.81C147.621 474.817 149.298 482.454 150.63 489.275C151.49 493.656 145.962 499.567 144.387 503.869L144.51 503.804C151.769 502.49 161.508 510.288 160.506 498.118C159.504 485.949 161.043 482.915 162.052 466.958Z" fill="#FFCFC9"/>
<path d="M160.288 489.164C162.786 489.164 166.844 494.285 166.441 502.486C166.209 507.379 165.315 512.203 163.791 516.788H135.723C136.216 507.957 144.51 503.804 144.51 503.804C151.769 502.49 161.145 510.288 160.143 498.118L160.288 489.164Z" fill="#3F4D79"/>
<path d="M182.262 260.997C182.262 260.997 120.402 273.676 113.375 294.693C106.348 315.709 139.127 465.85 139.127 465.85C158.132 469.144 167.882 465.85 167.882 465.85C187.649 363.028 164.488 328.924 164.488 328.924C210.552 326.705 239.622 331.662 244.138 298.962C245.579 288.579 235.285 248.864 182.262 260.997Z" fill="#573C7F"/>
<path d="M181.174 260.997C181.174 260.997 119.313 273.676 112.286 294.693C105.259 315.709 138.038 465.85 138.038 465.85" stroke="white" stroke-width="5" stroke-miterlimit="10"/>
<path d="M167.573 193.719C171.25 184.292 154.927 171.9 138.223 176.84C138.223 176.84 143.857 100.81 157.058 91.2305C169.871 81.9347 172.956 125.717 173.391 136.409C173.377 136.409 175.747 177.771 167.573 193.719Z" fill="#EAEEFF"/>
<path d="M166.136 196.012C174.226 187.779 157.497 171.023 138.223 176.84C126.166 178.964 79.2919 190.298 74.8855 192.896C70.5807 195.074 58.149 202.167 56.5665 204.32C54.5701 207.037 54.2653 214.225 54.3887 215.172C54.5121 216.119 56.1491 221.047 56.1491 221.047C56.1491 221.047 59.2887 220.68 58.8895 216.806C58.4104 212.2 62.0255 210.771 64.4429 209.536C65.4519 209.026 68.0726 209.236 68.5335 210.969C68.9945 212.702 65.1725 214.802 64.5409 216.057C63.6008 217.959 64.6897 220.088 64.7115 220.133C64.7333 220.178 70.5408 216.584 71.6623 215.909C72.6932 215.287 77.5388 208.873 79.5932 203.221C79.6077 203.217 151.933 210.487 166.136 196.012Z" fill="#FFC0B7"/>
<path d="M157.16 50.3215C155.798 46.571 150.158 27.1642 159.297 18.7824C168.437 10.4005 180.491 1.8004 195.075 3.13837C209.659 4.47634 213.725 26.5014 221.989 30.0419C230.254 33.5824 240.337 29.3832 249.865 39.099C259.393 48.8147 249.502 64.1088 259.212 72.2724C268.921 80.4361 278.278 70.107 288.006 84.5324C299.156 101.074 282.87 120.188 298.699 121.835C316.201 123.655 326.76 157.265 319.247 179.574H228.076C169.863 169.372 157.16 50.3215 157.16 50.3215Z" fill="#4D6EAB"/>
<path d="M163.443 17.6214C172.328 8.69201 182.658 2.75141 197.271 3.56243C211.884 4.37344 217.503 22.8375 225.866 26.1474C234.229 29.4573 244.773 24.7847 254.584 34.3811C264.395 43.9774 254.947 61.0253 264.91 69.0243C274.874 77.0233 283.901 66.0972 294.049 80.5185C305.69 97.0558 289.977 115.923 305.846 117.018C323.392 118.233 334.862 143.395 326.049 171.925" stroke="#4D6EAB" stroke-width="5" stroke-miterlimit="10"/>
<path d="M157.86 216.724C157.86 216.724 152.691 168.944 149.958 166.441C143.82 160.817 138.939 152.752 141.497 141.616C142.949 135.33 154.619 93.6594 157.105 91.0123C159.591 88.3651 175.907 81.7494 175.907 81.7494H222.004C227.252 83.7337 243.731 90.4565 247.669 97.2987C266.907 130.711 273.059 184.304 273.059 184.304H249.139C249.139 184.304 237.626 154.996 233.532 154.663C229.437 154.329 221.768 216.312 221.768 216.312C221.768 216.312 195.543 224.567 157.86 216.724Z" fill="#EAEEFF"/>
<path d="M157.497 216.724C157.497 216.724 152.328 168.944 149.595 166.441C143.457 160.817 138.213 152.341 140.772 141.205" stroke="white" stroke-width="5" stroke-miterlimit="10"/>
<path d="M190.19 87.5541C190.19 87.5541 168.956 133.506 174.219 220.841" stroke="white" stroke-width="5" stroke-miterlimit="10"/>
<path d="M187.653 126.458C189.198 126.458 190.451 125.037 190.451 123.284C190.451 121.531 189.198 120.11 187.653 120.11C186.107 120.11 184.854 121.531 184.854 123.284C184.854 125.037 186.107 126.458 187.653 126.458Z" stroke="white" stroke-width="5" stroke-miterlimit="10"/>
<path d="M183.816 149.735C185.362 149.735 186.614 148.314 186.614 146.561C186.614 144.808 185.362 143.387 183.816 143.387C182.27 143.387 181.017 144.808 181.017 146.561C181.017 148.314 182.27 149.735 183.816 149.735Z" stroke="white" stroke-width="5" stroke-miterlimit="10"/>
<path d="M181.765 173.094C183.311 173.094 184.564 171.673 184.564 169.92C184.564 168.167 183.311 166.746 181.765 166.746C180.22 166.746 178.967 168.167 178.967 169.92C178.967 171.673 180.22 173.094 181.765 173.094Z" stroke="white" stroke-width="5" stroke-miterlimit="10"/>
<path d="M270.406 197.334C258.562 211.459 181.99 192.571 181.99 192.571C181.99 192.571 177.998 199.726 173.323 199.981C168.647 200.236 164.223 198.363 161.849 200.635C159.475 202.908 157.08 206.864 155.221 207.272C153.015 207.784 150.75 207.892 148.514 207.593C149.308 205.109 150.221 202.676 151.25 200.306C149.838 201.603 148.085 203.982 147.058 204.975C146.631 205.426 146.082 205.701 145.5 205.755C144.918 205.81 144.336 205.641 143.849 205.275C143.849 205.275 146.917 199.964 148.125 198.544C149.334 197.124 153.04 193.559 155.094 192.748C157.523 191.57 171.74 183.67 178.836 182.361C186.36 180.978 247.296 176.326 247.296 176.326C269.335 176.309 280.351 185.477 270.406 197.334Z" fill="#FFCFC9"/>
<path d="M150.804 206.765C150.804 206.765 155.203 198.091 156.677 197.173C159.272 195.551 162.659 193.419 162.659 193.419" stroke="#FFB0AF" stroke-width="3" stroke-miterlimit="10" stroke-linecap="round"/>
<path d="M153.846 206.609C153.846 206.609 157.733 199.474 159.207 198.556C161.802 196.934 165.188 194.802 165.188 194.802" stroke="#FFB0AF" stroke-width="3" stroke-miterlimit="10" stroke-linecap="round"/>
<path d="M194.574 49.6751C194.574 49.6751 200.988 72.4865 221.989 81.7494C221.989 81.7494 192.531 96.3065 175.892 81.7494V50.3338L194.574 49.6751Z" fill="#FFCFC9"/>
<path d="M180.146 84.7176C178.647 83.8968 177.226 82.9021 175.907 81.7494V50.3338L194.574 49.6751C194.574 49.6751 194.756 50.3173 195.155 51.433C197.061 61.0623 191.907 81.0413 180.146 84.7176Z" fill="#FFC0B7"/>
<path d="M194.084 53.1868C193.892 60.6877 181.446 78.3324 174.64 78.3324C169 78.3324 158.47 59.0368 157.141 50.3379C155.78 41.3879 157.16 25.5134 168.412 25.2911C175.366 25.1552 178.938 32.5655 181.025 41.1574C183.566 51.5277 191.362 49.2017 191.362 49.2017C191.362 49.2017 193.594 43.4381 196.705 46.3199C199.816 49.2017 194.084 53.1868 194.084 53.1868Z" fill="#FFCFC9"/>
<path d="M13.2861 516.788L31.4345 233.208L49.583 517.385" stroke="#4D6EAB" stroke-width="5" stroke-miterlimit="10"/>
<path d="M11.6927 233.208H250.646C252.138 233.208 253.57 232.536 254.626 231.339C255.683 230.143 256.277 228.52 256.279 226.827C256.279 225.132 255.685 223.507 254.629 222.309C253.573 221.111 252.14 220.437 250.646 220.437H11.6927V233.208Z" fill="white"/>
<path d="M11.6927 233.208H250.646C252.138 233.208 253.57 232.536 254.626 231.339C255.683 230.143 256.277 228.52 256.279 226.827C256.279 225.132 255.685 223.507 254.629 222.309C253.573 221.111 252.14 220.437 250.646 220.437H11.6927" stroke="#4D6EAB" stroke-width="5" stroke-miterlimit="10"/>
<path d="M106.344 124.038H9.91415C8.85162 124.039 7.805 124.33 6.86318 124.888C5.92137 125.446 5.11218 126.254 4.50434 127.242C3.8965 128.231 3.50798 129.371 3.37176 130.566C3.23554 131.761 3.35566 132.976 3.72191 134.107L28.0408 209.034H140.96L115.807 131.526C115.094 129.33 113.805 127.434 112.113 126.095C110.421 124.756 108.407 124.038 106.344 124.038Z" stroke="black" stroke-miterlimit="10"/>
<path d="M107.211 124.038H10.4259C5.95053 124.038 2.84352 129.418 4.38977 134.494L25.4419 203.826C25.8619 205.316 26.6828 206.62 27.7895 207.554C28.8963 208.488 30.2331 209.006 31.6124 209.034H139.879L116.442 131.818C115.019 127.142 111.335 124.038 107.211 124.038Z" fill="white"/>
<path d="M103.219 129.229H6.43328C5.3969 129.229 4.37582 129.512 3.45696 130.056C2.5381 130.6 1.74869 131.387 1.15592 132.351C0.563153 133.316 0.184596 134.428 0.0524782 135.594C-0.0796398 136.76 0.0385946 137.945 0.397115 139.048L21.4493 204.143C21.9124 205.577 22.7526 206.815 23.8561 207.689C24.9597 208.564 26.2734 209.033 27.6197 209.034H135.886L112.449 136.532C111.754 134.39 110.496 132.541 108.846 131.235C107.195 129.929 105.231 129.229 103.219 129.229Z" fill="#E2E2FF"/>
<path d="M27.8158 209.034H212.516C215.091 209.034 217.561 210.194 219.381 212.259C221.202 214.325 222.225 217.126 222.225 220.046H37.5252C34.9501 220.046 32.4804 218.886 30.6596 216.821C28.8387 214.756 27.8158 211.954 27.8158 209.034Z" fill="white" stroke="#573C7F" stroke-width="6" stroke-miterlimit="10"/>
<path d="M106.344 124.038H9.91415C8.85162 124.039 7.805 124.33 6.86318 124.888C5.92137 125.446 5.11218 126.254 4.50434 127.242C3.8965 128.231 3.50798 129.371 3.37176 130.566C3.23554 131.761 3.35566 132.976 3.72191 134.107L28.0408 209.034H140.96L115.807 131.526C115.094 129.33 113.805 127.434 112.113 126.095C110.421 124.756 108.407 124.038 106.344 124.038Z" stroke="#573C7F" stroke-width="5" stroke-miterlimit="10"/>
<path d="M70.8485 178.438C73.1329 175.561 72.4474 170.637 69.3175 167.44C66.1876 164.244 61.7985 163.985 59.5142 166.863C57.2298 169.74 57.9153 174.664 61.0452 177.861C64.1751 181.057 68.5642 181.316 70.8485 178.438Z" fill="#4D6EAB"/>
<path d="M73.067 175.817C75.3513 172.94 74.6658 168.016 71.5359 164.819C68.406 161.623 64.0169 161.364 61.7326 164.242C59.4483 167.119 60.1338 172.043 63.2637 175.24C66.3936 178.436 70.7827 178.695 73.067 175.817Z" stroke="#573C7F" stroke-width="5" stroke-miterlimit="10"/>
</svg>
