<svg xmlns="http://www.w3.org/2000/svg" xmlns:xlink="http://www.w3.org/1999/xlink" width="1600" zoomAndPan="magnify" viewBox="0 0 1200 1199.999942" height="1600" preserveAspectRatio="xMidYMid meet" version="1.0"><defs><g/><clipPath id="47db44ea5f"><path d="M 657.324219 430.433594 L 1038.601562 430.433594 L 1038.601562 811.710938 L 657.324219 811.710938 Z M 657.324219 430.433594 " clip-rule="nonzero"/></clipPath><clipPath id="c25bc22a85"><path d="M 847.960938 430.433594 C 742.675781 430.433594 657.324219 515.785156 657.324219 621.074219 C 657.324219 726.359375 742.675781 811.710938 847.960938 811.710938 C 953.25 811.710938 1038.601562 726.359375 1038.601562 621.074219 C 1038.601562 515.785156 953.25 430.433594 847.960938 430.433594 Z M 847.960938 430.433594 " clip-rule="nonzero"/></clipPath></defs><rect x="-120" width="1440" fill="#ffffff" y="-119.999994" height="1439.999931" fill-opacity="1"/><rect x="-120" width="1440" fill="#543d7b" y="-119.999994" height="1439.999931" fill-opacity="1"/><g clip-path="url(#47db44ea5f)"><g clip-path="url(#c25bc22a85)"><path fill="#ffffff" d="M 657.324219 430.433594 L 1038.601562 430.433594 L 1038.601562 811.710938 L 657.324219 811.710938 Z M 657.324219 430.433594 " fill-opacity="1" fill-rule="nonzero"/></g></g><g fill="#ffffff" fill-opacity="1"><g transform="translate(154.026476, 703.198669)"><g><path d="M 131.59375 -110 C 143.726562 -110 152.660156 -106.832031 158.390625 -100.5 C 164.128906 -94.164062 167 -85.53125 167 -74.59375 L 167 0 L 149.796875 0 L 149.796875 -68.40625 C 149.796875 -77.195312 148.257812 -83.757812 145.1875 -88.09375 C 142.125 -92.425781 136.726562 -94.59375 129 -94.59375 C 121.9375 -94.59375 116.035156 -93.226562 111.296875 -90.5 C 106.566406 -87.769531 103.132812 -82.800781 101 -75.59375 L 101 0 L 83.796875 0 L 83.796875 -68.40625 C 83.796875 -77.332031 82.363281 -83.925781 79.5 -88.1875 C 76.632812 -92.457031 71.46875 -94.59375 64 -94.59375 C 56.53125 -94.59375 50.53125 -93.257812 46 -90.59375 C 41.46875 -87.925781 37.9375 -82.726562 35.40625 -75 L 35.40625 0 L 18.203125 0 L 18.203125 -108 L 35.40625 -108 L 35.40625 -93.796875 C 38.46875 -99.796875 42.628906 -103.992188 47.890625 -106.390625 C 53.160156 -108.796875 59.394531 -110 66.59375 -110 C 82.59375 -110 93.0625 -104.132812 98 -92.40625 C 103.332031 -104.132812 114.53125 -110 131.59375 -110 Z M 131.59375 -110 "/></g></g></g><g fill="#ffffff" fill-opacity="1"><g transform="translate(338.221517, 703.198669)"><g><path d="M 104 -64.796875 C 104 -61.992188 103.664062 -57.796875 103 -52.203125 L 29.796875 -47.59375 C 29.929688 -35.46875 32.53125 -26.703125 37.59375 -21.296875 C 42.664062 -15.898438 51.601562 -13.203125 64.40625 -13.203125 C 70.269531 -13.203125 76.332031 -13.867188 82.59375 -15.203125 C 88.863281 -16.535156 94.066406 -18.203125 98.203125 -20.203125 L 98.203125 -4.40625 C 94.867188 -2.664062 89.800781 -1.164062 83 0.09375 C 76.195312 1.363281 69.128906 2 61.796875 2 C 50.734375 2 41.535156 0.265625 34.203125 -3.203125 C 26.867188 -6.671875 21.300781 -12.503906 17.5 -20.703125 C 13.695312 -28.898438 11.796875 -40 11.796875 -54 C 11.796875 -74.53125 15.894531 -88.992188 24.09375 -97.390625 C 32.300781 -105.796875 44.535156 -110 60.796875 -110 C 77.328125 -110 88.660156 -105.734375 94.796875 -97.203125 C 100.929688 -88.671875 104 -77.867188 104 -64.796875 Z M 87 -64.59375 C 87 -71.132812 86.398438 -76.601562 85.203125 -81 C 84.003906 -85.394531 81.46875 -88.957031 77.59375 -91.6875 C 73.726562 -94.425781 68.128906 -95.796875 60.796875 -95.796875 C 52.796875 -95.796875 46.5625 -94.425781 42.09375 -91.6875 C 37.632812 -88.957031 34.535156 -85.0625 32.796875 -80 C 31.066406 -74.9375 30.066406 -68.40625 29.796875 -60.40625 Z M 87 -64.59375 "/></g></g></g><g fill="#ffffff" fill-opacity="1"><g transform="translate(453.818438, 703.198669)"><g><path d="M 104 -64.796875 C 104 -61.992188 103.664062 -57.796875 103 -52.203125 L 29.796875 -47.59375 C 29.929688 -35.46875 32.53125 -26.703125 37.59375 -21.296875 C 42.664062 -15.898438 51.601562 -13.203125 64.40625 -13.203125 C 70.269531 -13.203125 76.332031 -13.867188 82.59375 -15.203125 C 88.863281 -16.535156 94.066406 -18.203125 98.203125 -20.203125 L 98.203125 -4.40625 C 94.867188 -2.664062 89.800781 -1.164062 83 0.09375 C 76.195312 1.363281 69.128906 2 61.796875 2 C 50.734375 2 41.535156 0.265625 34.203125 -3.203125 C 26.867188 -6.671875 21.300781 -12.503906 17.5 -20.703125 C 13.695312 -28.898438 11.796875 -40 11.796875 -54 C 11.796875 -74.53125 15.894531 -88.992188 24.09375 -97.390625 C 32.300781 -105.796875 44.535156 -110 60.796875 -110 C 77.328125 -110 88.660156 -105.734375 94.796875 -97.203125 C 100.929688 -88.671875 104 -77.867188 104 -64.796875 Z M 87 -64.59375 C 87 -71.132812 86.398438 -76.601562 85.203125 -81 C 84.003906 -85.394531 81.46875 -88.957031 77.59375 -91.6875 C 73.726562 -94.425781 68.128906 -95.796875 60.796875 -95.796875 C 52.796875 -95.796875 46.5625 -94.425781 42.09375 -91.6875 C 37.632812 -88.957031 34.535156 -85.0625 32.796875 -80 C 31.066406 -74.9375 30.066406 -68.40625 29.796875 -60.40625 Z M 87 -64.59375 "/></g></g></g><g fill="#ffffff" fill-opacity="1"><g transform="translate(569.415382, 703.198669)"><g><path d="M 51.796875 -13.203125 C 55.929688 -13.203125 59.863281 -13.601562 63.59375 -14.40625 L 63.59375 0.203125 C 58.925781 0.867188 54.863281 1.203125 51.40625 1.203125 C 43 1.203125 36.53125 0.300781 32 -1.5 C 27.46875 -3.300781 24.164062 -6.632812 22.09375 -11.5 C 20.03125 -16.363281 19 -23.53125 19 -33 L 19 -93.59375 L 3 -93.59375 L 3 -108 L 19 -108 L 19 -133.59375 L 36.203125 -133.59375 L 36.203125 -108 L 63 -108 L 63 -93.59375 L 36.203125 -93.59375 L 36.203125 -34 C 36.203125 -28.132812 36.597656 -23.765625 37.390625 -20.890625 C 38.191406 -18.023438 39.660156 -16.023438 41.796875 -14.890625 C 43.929688 -13.765625 47.265625 -13.203125 51.796875 -13.203125 Z M 51.796875 -13.203125 "/></g></g></g><g fill="#543d7b" fill-opacity="1"><g transform="translate(715.686637, 725.550561)"><g><path d="M 234.5 -121.453125 C 234.5 -82.015625 228.664062 -52.90625 217 -34.125 C 205.332031 -15.34375 187.25 -3.734375 162.75 0.703125 L 203 50.75 L 165.546875 50.75 L 131.59375 3.5 L 129.84375 3.5 C 105.8125 3.5 86.210938 -0.234375 71.046875 -7.703125 C 55.878906 -15.171875 44.445312 -28.003906 36.75 -46.203125 C 29.050781 -64.398438 25.203125 -89.484375 25.203125 -121.453125 C 25.203125 -153.421875 29.050781 -178.503906 36.75 -196.703125 C 44.445312 -214.898438 55.878906 -227.734375 71.046875 -235.203125 C 86.210938 -242.671875 105.8125 -246.40625 129.84375 -246.40625 C 153.882812 -246.40625 173.488281 -242.671875 188.65625 -235.203125 C 203.820312 -227.734375 215.253906 -214.898438 222.953125 -196.703125 C 230.648438 -178.503906 234.5 -153.421875 234.5 -121.453125 Z M 129.84375 -23.453125 C 149.445312 -23.453125 164.441406 -26.773438 174.828125 -33.421875 C 185.210938 -40.078125 192.328125 -50.285156 196.171875 -64.046875 C 200.023438 -77.816406 201.953125 -96.953125 201.953125 -121.453125 C 201.953125 -145.253906 200.023438 -164.15625 196.171875 -178.15625 C 192.328125 -192.15625 185.210938 -202.59375 174.828125 -209.46875 C 164.441406 -216.351562 149.445312 -219.796875 129.84375 -219.796875 C 110.476562 -219.796875 95.601562 -216.351562 85.21875 -209.46875 C 74.84375 -202.59375 67.726562 -192.15625 63.875 -178.15625 C 60.019531 -164.15625 58.09375 -145.253906 58.09375 -121.453125 C 58.09375 -96.953125 60.019531 -77.816406 63.875 -64.046875 C 67.726562 -50.285156 74.785156 -40.078125 85.046875 -33.421875 C 95.316406 -26.773438 110.25 -23.453125 129.84375 -23.453125 Z M 129.84375 -23.453125 "/></g></g></g></svg>