<svg xmlns="http://www.w3.org/2000/svg" xmlns:xlink="http://www.w3.org/1999/xlink" width="1600" zoomAndPan="magnify" viewBox="0 0 1200 1199.999942" height="1600" preserveAspectRatio="xMidYMid meet" version="1.0"><path fill="#ff89aa" d="M 840 600 C 840 603.925781 839.902344 607.851562 839.710938 611.777344 C 839.519531 615.699219 839.230469 619.613281 838.84375 623.523438 C 838.460938 627.433594 837.980469 631.328125 837.402344 635.214844 C 836.824219 639.101562 836.15625 642.96875 835.386719 646.820312 C 834.621094 650.675781 833.761719 654.503906 832.808594 658.316406 C 831.851562 662.125 830.804688 665.910156 829.664062 669.667969 C 828.527344 673.425781 827.292969 677.15625 825.96875 680.851562 C 824.648438 684.550781 823.234375 688.214844 821.730469 691.84375 C 820.226562 695.472656 818.636719 699.0625 816.957031 702.613281 C 815.277344 706.164062 813.511719 709.671875 811.660156 713.136719 C 809.808594 716.597656 807.875 720.015625 805.855469 723.382812 C 803.835938 726.753906 801.734375 730.070312 799.550781 733.335938 C 797.371094 736.601562 795.109375 739.8125 792.769531 742.96875 C 790.429688 746.121094 788.015625 749.21875 785.523438 752.253906 C 783.03125 755.289062 780.464844 758.265625 777.828125 761.175781 C 775.191406 764.085938 772.484375 766.929688 769.707031 769.707031 C 766.929688 772.484375 764.085938 775.191406 761.175781 777.828125 C 758.265625 780.464844 755.289062 783.03125 752.253906 785.523438 C 749.21875 788.015625 746.121094 790.429688 742.96875 792.769531 C 739.8125 795.109375 736.601562 797.371094 733.335938 799.550781 C 730.070312 801.734375 726.753906 803.835938 723.382812 805.855469 C 720.015625 807.875 716.597656 809.808594 713.136719 811.660156 C 709.671875 813.511719 706.164062 815.277344 702.613281 816.957031 C 699.0625 818.636719 695.472656 820.226562 691.84375 821.730469 C 688.214844 823.234375 684.550781 824.648438 680.851562 825.96875 C 677.15625 827.292969 673.425781 828.523438 669.667969 829.664062 C 665.910156 830.804688 662.125 831.851562 658.316406 832.808594 C 654.503906 833.761719 650.675781 834.621094 646.820312 835.386719 C 642.96875 836.15625 639.101562 836.824219 635.214844 837.402344 C 631.328125 837.980469 627.433594 838.460938 623.523438 838.84375 C 619.613281 839.230469 615.699219 839.519531 611.777344 839.710938 C 607.851562 839.902344 603.929688 840 600 840 C 596.070312 840 592.148438 839.902344 588.222656 839.710938 C 584.300781 839.519531 580.382812 839.230469 576.476562 838.84375 C 572.566406 838.460938 568.671875 837.980469 564.785156 837.402344 C 560.898438 836.824219 557.03125 836.15625 553.179688 835.386719 C 549.324219 834.621094 545.496094 833.761719 541.683594 832.808594 C 537.875 831.851562 534.089844 830.804688 530.332031 829.664062 C 526.574219 828.523438 522.84375 827.292969 519.144531 825.96875 C 515.449219 824.648438 511.785156 823.234375 508.15625 821.730469 C 504.527344 820.226562 500.9375 818.636719 497.386719 816.957031 C 493.835938 815.277344 490.328125 813.511719 486.863281 811.660156 C 483.402344 809.808594 479.984375 807.875 476.617188 805.855469 C 473.246094 803.835938 469.929688 801.734375 466.664062 799.550781 C 463.398438 797.371094 460.1875 795.109375 457.03125 792.769531 C 453.878906 790.429688 450.78125 788.015625 447.746094 785.523438 C 444.710938 783.03125 441.734375 780.464844 438.824219 777.828125 C 435.914062 775.191406 433.070312 772.484375 430.292969 769.707031 C 427.515625 766.929688 424.808594 764.085938 422.171875 761.175781 C 419.535156 758.265625 416.96875 755.289062 414.476562 752.253906 C 411.984375 749.21875 409.570312 746.121094 407.230469 742.96875 C 404.890625 739.8125 402.628906 736.601562 400.445312 733.335938 C 398.265625 730.070312 396.164062 726.753906 394.144531 723.382812 C 392.125 720.015625 390.191406 716.597656 388.339844 713.136719 C 386.488281 709.671875 384.722656 706.164062 383.042969 702.613281 C 381.363281 699.0625 379.773438 695.472656 378.269531 691.84375 C 376.765625 688.214844 375.351562 684.550781 374.03125 680.851562 C 372.707031 677.15625 371.472656 673.425781 370.335938 669.667969 C 369.195312 665.910156 368.148438 662.125 367.191406 658.316406 C 366.238281 654.503906 365.378906 650.675781 364.613281 646.820312 C 363.84375 642.96875 363.175781 639.101562 362.597656 635.214844 C 362.019531 631.328125 361.539062 627.433594 361.15625 623.523438 C 360.769531 619.613281 360.480469 615.699219 360.289062 611.777344 C 360.097656 607.851562 360 603.925781 360 600 C 360 596.070312 360.097656 592.148438 360.289062 588.222656 C 360.480469 584.300781 360.769531 580.382812 361.15625 576.476562 C 361.539062 572.566406 362.019531 568.667969 362.597656 564.785156 C 363.175781 560.898438 363.84375 557.03125 364.613281 553.179688 C 365.378906 549.324219 366.238281 545.496094 367.191406 541.683594 C 368.148438 537.875 369.195312 534.089844 370.335938 530.332031 C 371.472656 526.574219 372.707031 522.84375 374.03125 519.144531 C 375.351562 515.449219 376.765625 511.785156 378.269531 508.15625 C 379.773438 504.527344 381.363281 500.9375 383.042969 497.386719 C 384.722656 493.835938 386.488281 490.328125 388.339844 486.863281 C 390.191406 483.402344 392.125 479.984375 394.144531 476.617188 C 396.164062 473.246094 398.265625 469.929688 400.449219 466.664062 C 402.628906 463.398438 404.890625 460.1875 407.230469 457.03125 C 409.570312 453.878906 411.984375 450.78125 414.476562 447.746094 C 416.96875 444.710938 419.535156 441.734375 422.171875 438.824219 C 424.808594 435.914062 427.515625 433.070312 430.292969 430.292969 C 433.070312 427.515625 435.914062 424.808594 438.824219 422.171875 C 441.734375 419.535156 444.710938 416.96875 447.746094 414.476562 C 450.78125 411.984375 453.878906 409.570312 457.03125 407.230469 C 460.1875 404.890625 463.398438 402.628906 466.664062 400.445312 C 469.929688 398.265625 473.246094 396.164062 476.617188 394.144531 C 479.984375 392.125 483.402344 390.191406 486.863281 388.339844 C 490.328125 386.488281 493.835938 384.722656 497.386719 383.042969 C 500.9375 381.363281 504.527344 379.773438 508.15625 378.269531 C 511.785156 376.765625 515.449219 375.351562 519.144531 374.03125 C 522.84375 372.707031 526.574219 371.472656 530.332031 370.335938 C 534.089844 369.195312 537.875 368.148438 541.683594 367.191406 C 545.496094 366.238281 549.324219 365.378906 553.179688 364.613281 C 557.03125 363.84375 560.898438 363.175781 564.785156 362.597656 C 568.671875 362.019531 572.566406 361.539062 576.476562 361.15625 C 580.382812 360.769531 584.300781 360.480469 588.222656 360.289062 C 592.148438 360.097656 596.070312 360 600 360 C 603.929688 360 607.851562 360.097656 611.777344 360.289062 C 615.699219 360.480469 619.613281 360.769531 623.523438 361.15625 C 627.433594 361.539062 631.328125 362.019531 635.214844 362.597656 C 639.101562 363.175781 642.96875 363.84375 646.820312 364.613281 C 650.675781 365.378906 654.503906 366.238281 658.316406 367.191406 C 662.125 368.148438 665.910156 369.195312 669.667969 370.335938 C 673.425781 371.472656 677.15625 372.707031 680.851562 374.03125 C 684.550781 375.351562 688.214844 376.765625 691.84375 378.269531 C 695.472656 379.773438 699.0625 381.363281 702.613281 383.042969 C 706.164062 384.722656 709.671875 386.488281 713.136719 388.339844 C 716.597656 390.191406 720.015625 392.125 723.382812 394.144531 C 726.753906 396.164062 730.070312 398.265625 733.335938 400.445312 C 736.601562 402.628906 739.8125 404.890625 742.96875 407.230469 C 746.121094 409.570312 749.21875 411.984375 752.253906 414.476562 C 755.289062 416.96875 758.265625 419.535156 761.175781 422.171875 C 764.085938 424.808594 766.929688 427.515625 769.707031 430.292969 C 772.484375 433.070312 775.191406 435.914062 777.828125 438.824219 C 780.464844 441.734375 783.03125 444.710938 785.523438 447.746094 C 788.015625 450.78125 790.429688 453.878906 792.769531 457.03125 C 795.109375 460.1875 797.371094 463.398438 799.550781 466.664062 C 801.734375 469.929688 803.835938 473.246094 805.855469 476.617188 C 807.875 479.984375 809.808594 483.402344 811.660156 486.863281 C 813.511719 490.328125 815.277344 493.835938 816.957031 497.386719 C 818.636719 500.9375 820.226562 504.527344 821.730469 508.15625 C 823.234375 511.785156 824.648438 515.449219 825.96875 519.144531 C 827.292969 522.84375 828.527344 526.574219 829.664062 530.332031 C 830.804688 534.089844 831.851562 537.875 832.808594 541.683594 C 833.761719 545.496094 834.621094 549.324219 835.386719 553.179688 C 836.15625 557.03125 836.824219 560.898438 837.402344 564.785156 C 837.980469 568.667969 838.460938 572.566406 838.84375 576.476562 C 839.230469 580.382812 839.519531 584.300781 839.710938 588.222656 C 839.902344 592.148438 840 596.070312 840 600 Z M 840 600 " fill-opacity="1" fill-rule="nonzero"/><path fill="#212121" d="M 709.285156 506.28125 C 709.285156 504.667969 709.09375 503.078125 708.707031 501.515625 C 708.316406 499.949219 707.75 498.453125 706.996094 497.027344 C 706.246094 495.597656 705.335938 494.285156 704.261719 493.078125 C 703.191406 491.875 701.988281 490.816406 700.660156 489.902344 C 701.289062 489.191406 701.863281 488.4375 702.382812 487.640625 C 702.902344 486.847656 703.363281 486.019531 703.761719 485.15625 C 704.164062 484.296875 704.5 483.410156 704.773438 482.5 C 705.046875 481.589844 705.253906 480.667969 705.394531 479.726562 C 705.535156 478.789062 705.605469 477.84375 705.613281 476.894531 C 705.617188 475.941406 705.550781 474.996094 705.421875 474.058594 C 705.289062 473.117188 705.089844 472.191406 704.824219 471.277344 C 704.5625 470.367188 704.230469 469.476562 703.839844 468.613281 C 703.445312 467.746094 702.992188 466.914062 702.480469 466.113281 C 701.96875 465.316406 701.402344 464.554688 700.78125 463.835938 C 700.15625 463.121094 699.488281 462.449219 698.769531 461.828125 C 698.050781 461.207031 697.292969 460.640625 696.492188 460.125 C 695.691406 459.613281 694.859375 459.160156 693.996094 458.769531 C 693.128906 458.375 692.242188 458.046875 691.328125 457.78125 C 690.417969 457.515625 689.492188 457.320312 688.550781 457.1875 C 687.609375 457.054688 686.664062 456.992188 685.714844 456.996094 C 685.179688 456.996094 684.675781 457.113281 684.152344 457.152344 C 684.613281 455.5 684.855469 453.8125 684.878906 452.097656 C 684.878906 451.445312 684.847656 450.792969 684.785156 450.144531 C 684.71875 449.496094 684.625 448.855469 684.496094 448.214844 C 684.371094 447.574219 684.210938 446.945312 684.023438 446.320312 C 683.832031 445.695312 683.613281 445.085938 683.363281 444.480469 C 683.117188 443.878906 682.835938 443.292969 682.53125 442.714844 C 682.222656 442.140625 681.886719 441.582031 681.527344 441.042969 C 681.164062 440.5 680.777344 439.976562 680.363281 439.472656 C 679.949219 438.96875 679.511719 438.488281 679.050781 438.027344 C 678.589844 437.566406 678.109375 437.128906 677.605469 436.714844 C 677.101562 436.300781 676.578125 435.914062 676.035156 435.550781 C 675.496094 435.191406 674.9375 434.855469 674.363281 434.546875 C 673.785156 434.242188 673.199219 433.960938 672.597656 433.714844 C 671.996094 433.464844 671.382812 433.246094 670.757812 433.054688 C 670.132812 432.867188 669.503906 432.707031 668.863281 432.582031 C 668.222656 432.453125 667.582031 432.359375 666.933594 432.292969 C 666.285156 432.230469 665.632812 432.199219 664.980469 432.199219 C 661.421875 432.21875 658.109375 433.136719 655.042969 434.953125 C 655.050781 434.761719 655.101562 434.578125 655.101562 434.386719 C 655.105469 433.3125 655.019531 432.242188 654.847656 431.183594 C 654.679688 430.121094 654.421875 429.082031 654.082031 428.0625 C 653.742188 427.042969 653.324219 426.058594 652.824219 425.105469 C 652.324219 424.15625 651.75 423.25 651.105469 422.394531 C 650.457031 421.535156 649.746094 420.734375 648.972656 419.992188 C 648.195312 419.25 647.363281 418.574219 646.476562 417.964844 C 645.589844 417.359375 644.664062 416.824219 643.691406 416.371094 C 642.71875 415.914062 641.714844 415.535156 640.679688 415.242188 C 639.648438 414.949219 638.597656 414.738281 637.53125 414.617188 C 636.464844 414.492188 635.394531 414.457031 634.320312 414.507812 C 633.246094 414.554688 632.183594 414.691406 631.132812 414.914062 C 630.082031 415.136719 629.054688 415.445312 628.054688 415.832031 C 627.054688 416.222656 626.089844 416.6875 625.164062 417.234375 C 624.238281 417.78125 623.363281 418.398438 622.539062 419.085938 C 621.710938 419.773438 620.949219 420.523438 620.242188 421.335938 C 619.539062 422.144531 618.90625 423.007812 618.34375 423.925781 C 617.964844 423.027344 617.523438 422.160156 617.019531 421.328125 C 616.515625 420.492188 615.953125 419.703125 615.332031 418.949219 C 614.710938 418.199219 614.039062 417.5 613.3125 416.847656 C 612.589844 416.195312 611.820312 415.597656 611.011719 415.058594 C 610.199219 414.519531 609.351562 414.042969 608.46875 413.628906 C 607.589844 413.214844 606.683594 412.867188 605.75 412.585938 C 604.816406 412.304688 603.867188 412.089844 602.90625 411.949219 C 601.941406 411.804688 600.972656 411.734375 599.996094 411.734375 C 599.023438 411.734375 598.054688 411.804688 597.089844 411.949219 C 596.125 412.089844 595.179688 412.304688 594.246094 412.585938 C 593.3125 412.867188 592.40625 413.214844 591.523438 413.628906 C 590.644531 414.042969 589.796875 414.519531 588.984375 415.058594 C 588.171875 415.597656 587.40625 416.195312 586.679688 416.847656 C 585.957031 417.5 585.285156 418.199219 584.664062 418.949219 C 584.042969 419.703125 583.480469 420.492188 582.976562 421.328125 C 582.46875 422.160156 582.03125 423.027344 581.652344 423.925781 C 581.089844 423.007812 580.453125 422.148438 579.75 421.335938 C 579.046875 420.523438 578.28125 419.773438 577.457031 419.085938 C 576.632812 418.398438 575.753906 417.78125 574.832031 417.238281 C 573.90625 416.691406 572.941406 416.226562 571.941406 415.835938 C 570.9375 415.445312 569.914062 415.140625 568.863281 414.917969 C 567.808594 414.695312 566.75 414.558594 565.675781 414.511719 C 564.601562 414.460938 563.53125 414.496094 562.464844 414.621094 C 561.398438 414.746094 560.347656 414.953125 559.316406 415.246094 C 558.28125 415.542969 557.277344 415.917969 556.304688 416.375 C 555.335938 416.832031 554.40625 417.363281 553.519531 417.96875 C 552.632812 418.578125 551.800781 419.253906 551.027344 419.996094 C 550.25 420.738281 549.539062 421.539062 548.890625 422.398438 C 548.246094 423.253906 547.671875 424.160156 547.171875 425.109375 C 546.675781 426.0625 546.253906 427.046875 545.914062 428.066406 C 545.574219 429.085938 545.320312 430.125 545.148438 431.183594 C 544.976562 432.246094 544.894531 433.3125 544.894531 434.386719 C 544.894531 434.582031 544.949219 434.761719 544.953125 434.953125 C 541.890625 433.136719 538.578125 432.21875 535.015625 432.199219 C 534.363281 432.199219 533.714844 432.234375 533.066406 432.296875 C 532.417969 432.359375 531.773438 432.457031 531.132812 432.582031 C 530.496094 432.710938 529.863281 432.867188 529.238281 433.058594 C 528.617188 433.246094 528.003906 433.464844 527.402344 433.714844 C 526.800781 433.964844 526.210938 434.242188 525.636719 434.550781 C 525.0625 434.855469 524.503906 435.191406 523.960938 435.554688 C 523.417969 435.914062 522.894531 436.304688 522.394531 436.71875 C 521.890625 437.128906 521.40625 437.566406 520.945312 438.027344 C 520.484375 438.488281 520.046875 438.972656 519.632812 439.476562 C 519.222656 439.980469 518.832031 440.5 518.472656 441.042969 C 518.109375 441.585938 517.773438 442.144531 517.46875 442.71875 C 517.160156 443.292969 516.882812 443.882812 516.632812 444.484375 C 516.382812 445.085938 516.164062 445.699219 515.976562 446.320312 C 515.785156 446.945312 515.628906 447.578125 515.5 448.214844 C 515.375 448.855469 515.277344 449.5 515.214844 450.148438 C 515.148438 450.796875 515.117188 451.445312 515.117188 452.097656 C 515.140625 453.816406 515.382812 455.5 515.847656 457.15625 C 515.320312 457.113281 514.816406 456.996094 514.28125 456.996094 C 513.332031 456.992188 512.386719 457.058594 511.445312 457.1875 C 510.507812 457.320312 509.578125 457.519531 508.667969 457.785156 C 507.753906 458.046875 506.867188 458.378906 506 458.769531 C 505.136719 459.164062 504.304688 459.617188 503.503906 460.128906 C 502.703125 460.640625 501.945312 461.207031 501.226562 461.828125 C 500.507812 462.453125 499.839844 463.121094 499.21875 463.839844 C 498.597656 464.558594 498.027344 465.316406 497.515625 466.117188 C 497.003906 466.917969 496.550781 467.75 496.15625 468.613281 C 495.765625 469.476562 495.4375 470.367188 495.171875 471.277344 C 494.90625 472.191406 494.707031 473.117188 494.578125 474.058594 C 494.445312 475 494.382812 475.945312 494.386719 476.894531 C 494.390625 477.84375 494.460938 478.789062 494.601562 479.730469 C 494.742188 480.667969 494.949219 481.59375 495.222656 482.503906 C 495.496094 483.414062 495.832031 484.296875 496.234375 485.160156 C 496.636719 486.019531 497.09375 486.847656 497.617188 487.644531 C 498.136719 488.4375 498.710938 489.191406 499.339844 489.90625 C 497.859375 490.917969 496.546875 492.109375 495.390625 493.480469 C 494.238281 494.847656 493.285156 496.347656 492.535156 497.972656 C 491.785156 499.601562 491.265625 501.296875 490.976562 503.066406 C 490.683594 504.832031 490.632812 506.605469 490.824219 508.386719 C 491.011719 510.167969 491.433594 511.894531 492.089844 513.558594 C 492.746094 515.226562 493.609375 516.777344 494.683594 518.210938 C 495.757812 519.644531 497.003906 520.910156 498.421875 522.003906 C 499.839844 523.101562 501.375 523.988281 503.03125 524.671875 C 502.359375 525.550781 501.761719 526.480469 501.246094 527.460938 C 500.726562 528.4375 500.296875 529.453125 499.949219 530.507812 C 499.601562 531.558594 499.347656 532.632812 499.179688 533.730469 C 499.015625 534.824219 498.941406 535.925781 498.960938 537.035156 C 498.980469 538.140625 499.089844 539.238281 499.292969 540.328125 C 499.496094 541.417969 499.789062 542.480469 500.171875 543.523438 C 500.550781 544.5625 501.019531 545.5625 501.570312 546.523438 C 502.117188 547.484375 502.746094 548.394531 503.449219 549.25 C 504.152344 550.109375 504.921875 550.898438 505.757812 551.628906 C 506.589844 552.355469 507.480469 553.007812 508.425781 553.585938 C 509.371094 554.164062 510.359375 554.65625 511.386719 555.070312 C 512.417969 555.480469 513.472656 555.804688 514.554688 556.039062 C 515.636719 556.273438 516.730469 556.417969 517.839844 556.46875 C 518.945312 556.519531 520.050781 556.476562 521.148438 556.34375 C 522.25 556.207031 523.328125 555.984375 524.390625 555.667969 C 525.453125 555.351562 526.480469 554.949219 527.476562 554.460938 C 528.890625 557.992188 530.492188 561.441406 532.289062 564.796875 L 665.816406 565.714844 C 667.996094 561.917969 669.917969 557.996094 671.578125 553.945312 C 674.539062 555.617188 677.722656 556.464844 681.121094 556.484375 C 682.042969 556.492188 682.960938 556.429688 683.871094 556.308594 C 684.78125 556.183594 685.683594 555.996094 686.566406 555.746094 C 687.453125 555.5 688.320312 555.191406 689.160156 554.820312 C 690.003906 554.449219 690.816406 554.023438 691.601562 553.542969 C 692.386719 553.058594 693.132812 552.523438 693.839844 551.9375 C 694.550781 551.351562 695.214844 550.71875 695.835938 550.039062 C 696.457031 549.359375 697.027344 548.640625 697.546875 547.878906 C 698.066406 547.121094 698.53125 546.332031 698.941406 545.507812 C 699.351562 544.683594 699.703125 543.835938 699.996094 542.960938 C 700.289062 542.089844 700.519531 541.199219 700.6875 540.292969 C 700.855469 539.390625 700.960938 538.476562 701 537.558594 C 701.042969 536.640625 701.019531 535.722656 700.929688 534.804688 C 700.84375 533.886719 700.695312 532.984375 700.480469 532.085938 C 700.269531 531.191406 699.992188 530.316406 699.660156 529.457031 C 699.324219 528.601562 698.929688 527.773438 698.480469 526.96875 C 698.027344 526.167969 697.523438 525.398438 696.964844 524.667969 C 697.871094 524.296875 698.746094 523.859375 699.585938 523.355469 C 700.429688 522.855469 701.226562 522.292969 701.988281 521.671875 C 702.746094 521.050781 703.453125 520.378906 704.113281 519.65625 C 704.773438 518.929688 705.375 518.160156 705.917969 517.347656 C 706.464844 516.53125 706.945312 515.683594 707.367188 514.796875 C 707.785156 513.914062 708.140625 513 708.425781 512.0625 C 708.710938 511.125 708.925781 510.171875 709.070312 509.203125 C 709.214844 508.234375 709.285156 507.261719 709.285156 506.28125 Z M 709.285156 506.28125 " fill-opacity="1" fill-rule="nonzero"/><path fill="#8e4a3c" d="M 710.914062 582.855469 C 710.914062 581.746094 710.855469 580.636719 710.746094 579.53125 C 710.636719 578.425781 710.472656 577.328125 710.257812 576.238281 C 710.042969 575.148438 709.773438 574.074219 709.453125 573.007812 C 709.132812 571.945312 708.757812 570.898438 708.335938 569.871094 C 707.914062 568.84375 707.441406 567.839844 706.921875 566.859375 C 706.402344 565.875 705.835938 564.921875 705.222656 563.996094 C 704.609375 563.070312 703.953125 562.171875 703.253906 561.3125 C 702.554688 560.449219 701.8125 559.621094 701.035156 558.828125 C 700.253906 558.039062 699.4375 557.289062 698.582031 556.578125 C 697.730469 555.863281 696.84375 555.195312 695.925781 554.570312 C 695.007812 553.945312 694.0625 553.367188 693.085938 552.832031 C 692.113281 552.296875 691.113281 551.8125 690.09375 551.378906 C 689.070312 550.941406 688.03125 550.554688 686.96875 550.21875 C 685.910156 549.882812 684.839844 549.601562 683.75 549.371094 C 682.664062 549.136719 681.570312 548.960938 680.464844 548.835938 C 679.359375 548.710938 678.253906 548.640625 677.144531 548.625 L 677.144531 548.570312 L 660 548.570312 L 660 617.144531 L 677.144531 617.144531 L 677.144531 617.089844 C 678.253906 617.074219 679.359375 617.003906 680.464844 616.878906 C 681.570312 616.753906 682.664062 616.574219 683.75 616.34375 C 684.839844 616.113281 685.910156 615.832031 686.96875 615.496094 C 688.03125 615.160156 689.070312 614.773438 690.09375 614.335938 C 691.113281 613.902344 692.113281 613.414062 693.085938 612.882812 C 694.0625 612.347656 695.007812 611.769531 695.925781 611.144531 C 696.84375 610.519531 697.730469 609.847656 698.582031 609.136719 C 699.4375 608.425781 700.253906 607.675781 701.035156 606.882812 C 701.8125 606.09375 702.554688 605.265625 703.253906 604.402344 C 703.953125 603.539062 704.609375 602.644531 705.222656 601.71875 C 705.835938 600.792969 706.402344 599.839844 706.921875 598.855469 C 707.441406 597.875 707.914062 596.871094 708.335938 595.84375 C 708.757812 594.816406 709.132812 593.769531 709.453125 592.707031 C 709.773438 591.640625 710.042969 590.566406 710.257812 589.476562 C 710.472656 588.386719 710.636719 587.289062 710.746094 586.183594 C 710.855469 585.078125 710.914062 583.96875 710.914062 582.855469 Z M 710.914062 582.855469 " fill-opacity="1" fill-rule="nonzero"/><path fill="#8e4a3c" d="M 522.855469 548.570312 C 521.734375 548.570312 520.613281 548.625 519.496094 548.738281 C 518.378906 548.847656 517.269531 549.011719 516.167969 549.230469 C 515.066406 549.449219 513.980469 549.722656 512.90625 550.046875 C 511.828125 550.375 510.773438 550.75 509.738281 551.179688 C 508.699219 551.609375 507.683594 552.089844 506.695312 552.621094 C 505.703125 553.148438 504.742188 553.726562 503.808594 554.347656 C 502.875 554.972656 501.972656 555.640625 501.105469 556.355469 C 500.238281 557.066406 499.40625 557.820312 498.613281 558.613281 C 497.820312 559.40625 497.066406 560.238281 496.355469 561.105469 C 495.640625 561.972656 494.972656 562.875 494.347656 563.808594 C 493.726562 564.742188 493.148438 565.703125 492.621094 566.695312 C 492.089844 567.683594 491.609375 568.699219 491.179688 569.738281 C 490.75 570.773438 490.375 571.828125 490.046875 572.90625 C 489.722656 573.980469 489.449219 575.066406 489.230469 576.167969 C 489.011719 577.269531 488.847656 578.378906 488.738281 579.496094 C 488.625 580.613281 488.570312 581.734375 488.570312 582.855469 C 488.570312 583.980469 488.625 585.101562 488.738281 586.21875 C 488.847656 587.335938 489.011719 588.445312 489.230469 589.546875 C 489.449219 590.648438 489.722656 591.734375 490.046875 592.808594 C 490.375 593.882812 490.75 594.941406 491.179688 595.976562 C 491.609375 597.015625 492.089844 598.027344 492.621094 599.019531 C 493.148438 600.007812 493.726562 600.972656 494.347656 601.90625 C 494.972656 602.839844 495.640625 603.738281 496.355469 604.609375 C 497.066406 605.476562 497.820312 606.308594 498.613281 607.101562 C 499.40625 607.894531 500.238281 608.648438 501.105469 609.359375 C 501.972656 610.074219 502.875 610.742188 503.808594 611.363281 C 504.742188 611.988281 505.703125 612.566406 506.695312 613.09375 C 507.683594 613.625 508.699219 614.101562 509.738281 614.53125 C 510.773438 614.960938 511.828125 615.339844 512.90625 615.667969 C 513.980469 615.992188 515.066406 616.265625 516.167969 616.484375 C 517.269531 616.703125 518.378906 616.867188 519.496094 616.976562 C 520.613281 617.085938 521.734375 617.144531 522.855469 617.144531 L 540 617.144531 L 540 548.570312 Z M 522.855469 548.570312 " fill-opacity="1" fill-rule="nonzero"/><path fill="#ba6e5a" d="M 777.941406 761.144531 C 773.007812 766.597656 767.835938 771.8125 762.417969 776.789062 C 757.003906 781.765625 751.375 786.480469 745.523438 790.941406 C 739.675781 795.398438 733.632812 799.578125 727.398438 803.480469 C 721.164062 807.382812 714.765625 810.988281 708.199219 814.300781 C 701.632812 817.613281 694.929688 820.617188 688.085938 823.3125 C 681.242188 826.007812 674.292969 828.382812 667.230469 830.4375 C 660.167969 832.492188 653.027344 834.214844 645.808594 835.613281 C 638.585938 837.011719 631.316406 838.074219 624 838.800781 C 616.113281 839.570312 608.144531 840 600 840 C 591.855469 840 583.886719 839.570312 576 838.800781 C 568.683594 838.074219 561.414062 837.011719 554.191406 835.613281 C 546.972656 834.214844 539.832031 832.492188 532.769531 830.4375 C 525.707031 828.382812 518.757812 826.007812 511.914062 823.3125 C 505.070312 820.617188 498.367188 817.613281 491.800781 814.300781 C 485.234375 810.988281 478.835938 807.382812 472.601562 803.480469 C 466.367188 799.578125 460.324219 795.398438 454.476562 790.941406 C 448.625 786.480469 442.996094 781.765625 437.582031 776.789062 C 432.164062 771.8125 426.992188 766.597656 422.058594 761.144531 C 423.230469 759.105469 424.507812 757.132812 425.886719 755.226562 C 427.261719 753.316406 428.734375 751.484375 430.296875 749.730469 C 431.863281 747.972656 433.515625 746.300781 435.25 744.714844 C 436.988281 743.128906 438.800781 741.632812 440.691406 740.234375 C 442.582031 738.832031 444.535156 737.53125 446.558594 736.332031 C 448.582031 735.132812 450.664062 734.039062 452.796875 733.050781 C 454.933594 732.066406 457.113281 731.191406 459.339844 730.425781 C 461.5625 729.664062 463.824219 729.015625 466.113281 728.484375 L 537 712.199219 L 544.542969 710.484375 L 565.714844 705.601562 L 565.714844 653.484375 L 634.285156 653.484375 L 634.285156 705.601562 L 655.457031 710.484375 L 663 712.199219 L 733.886719 728.484375 C 736.175781 729.015625 738.4375 729.664062 740.660156 730.425781 C 742.886719 731.191406 745.066406 732.066406 747.203125 733.050781 C 749.335938 734.039062 751.417969 735.132812 753.441406 736.332031 C 755.464844 737.53125 757.417969 738.832031 759.308594 740.234375 C 761.199219 741.632812 763.011719 743.128906 764.75 744.714844 C 766.484375 746.300781 768.136719 747.972656 769.703125 749.730469 C 771.265625 751.484375 772.738281 753.316406 774.113281 755.226562 C 775.492188 757.132812 776.769531 759.105469 777.941406 761.144531 Z M 777.941406 761.144531 " fill-opacity="1" fill-rule="nonzero"/><path fill="#8e4a3c" d="M 634.285156 696.308594 L 634.285156 653.515625 L 565.714844 653.515625 L 565.714844 696.308594 C 568.4375 697.386719 571.203125 698.335938 574.015625 699.152344 C 576.828125 699.972656 579.671875 700.65625 582.546875 701.207031 C 585.421875 701.753906 588.320312 702.167969 591.234375 702.441406 C 594.148438 702.71875 597.070312 702.855469 600 702.855469 C 602.929688 702.855469 605.851562 702.71875 608.765625 702.441406 C 611.679688 702.167969 614.578125 701.753906 617.453125 701.207031 C 620.328125 700.65625 623.171875 699.972656 625.984375 699.152344 C 628.796875 698.335938 631.5625 697.386719 634.285156 696.308594 Z M 634.285156 696.308594 " fill-opacity="1" fill-rule="nonzero"/><path fill="#ba6e5a" d="M 522.855469 548.570312 C 522.855469 496.5 529.871094 454.285156 600 454.285156 C 670.128906 454.285156 677.144531 496.5 677.144531 548.570312 L 677.144531 608.570312 C 677.144531 609.832031 677.113281 611.09375 677.050781 612.355469 C 676.988281 613.617188 676.894531 614.875 676.769531 616.132812 C 676.648438 617.390625 676.492188 618.640625 676.308594 619.890625 C 676.121094 621.140625 675.90625 622.382812 675.660156 623.621094 C 675.414062 624.859375 675.136719 626.089844 674.832031 627.316406 C 674.523438 628.539062 674.1875 629.757812 673.820312 630.964844 C 673.453125 632.171875 673.058594 633.371094 672.632812 634.558594 C 672.207031 635.75 671.753906 636.925781 671.269531 638.09375 C 670.789062 639.257812 670.277344 640.414062 669.734375 641.554688 C 669.195312 642.695312 668.628906 643.824219 668.035156 644.9375 C 667.4375 646.050781 666.816406 647.148438 666.167969 648.230469 C 665.519531 649.3125 664.84375 650.378906 664.140625 651.429688 C 663.441406 652.480469 662.714844 653.511719 661.960938 654.523438 C 661.210938 655.539062 660.433594 656.535156 659.632812 657.511719 C 658.832031 658.484375 658.007812 659.441406 657.160156 660.378906 C 656.3125 661.3125 655.441406 662.226562 654.546875 663.121094 C 653.65625 664.011719 652.742188 664.882812 651.804688 665.730469 C 650.871094 666.578125 649.914062 667.402344 648.9375 668.203125 C 647.964844 669.003906 646.96875 669.78125 645.953125 670.53125 C 644.941406 671.285156 643.90625 672.011719 642.859375 672.714844 C 641.808594 673.414062 640.742188 674.089844 639.660156 674.738281 C 638.578125 675.386719 637.476562 676.011719 636.363281 676.605469 C 635.25 677.199219 634.125 677.769531 632.984375 678.308594 C 631.839844 678.847656 630.6875 679.359375 629.519531 679.84375 C 628.355469 680.324219 627.175781 680.78125 625.988281 681.203125 C 624.800781 681.628906 623.601562 682.027344 622.394531 682.390625 C 621.183594 682.757812 619.96875 683.09375 618.742188 683.402344 C 617.519531 683.710938 616.289062 683.984375 615.050781 684.230469 C 613.8125 684.476562 612.566406 684.695312 611.320312 684.878906 C 610.070312 685.066406 608.816406 685.21875 607.5625 685.34375 C 606.304688 685.464844 605.046875 685.558594 603.785156 685.621094 C 602.523438 685.683594 601.261719 685.714844 600 685.714844 C 598.738281 685.714844 597.476562 685.683594 596.214844 685.621094 C 594.953125 685.558594 593.695312 685.464844 592.4375 685.34375 C 591.183594 685.21875 589.929688 685.066406 588.679688 684.878906 C 587.433594 684.695312 586.1875 684.476562 584.949219 684.230469 C 583.710938 683.984375 582.480469 683.710938 581.253906 683.402344 C 580.03125 683.09375 578.816406 682.757812 577.605469 682.390625 C 576.398438 682.027344 575.199219 681.628906 574.011719 681.203125 C 572.824219 680.78125 571.644531 680.324219 570.480469 679.84375 C 569.3125 679.359375 568.160156 678.847656 567.015625 678.308594 C 565.875 677.769531 564.75 677.199219 563.636719 676.605469 C 562.523438 676.011719 561.421875 675.386719 560.339844 674.738281 C 559.257812 674.089844 558.191406 673.414062 557.140625 672.714844 C 556.09375 672.011719 555.058594 671.285156 554.046875 670.53125 C 553.03125 669.78125 552.035156 669.003906 551.0625 668.203125 C 550.085938 667.402344 549.128906 666.578125 548.195312 665.730469 C 547.257812 664.882812 546.34375 664.011719 545.453125 663.121094 C 544.558594 662.226562 543.6875 661.3125 542.839844 660.378906 C 541.992188 659.441406 541.167969 658.484375 540.367188 657.511719 C 539.566406 656.535156 538.789062 655.539062 538.039062 654.523438 C 537.285156 653.511719 536.558594 652.480469 535.859375 651.429688 C 535.15625 650.378906 534.480469 649.3125 533.832031 648.230469 C 533.183594 647.148438 532.5625 646.050781 531.964844 644.9375 C 531.371094 643.824219 530.804688 642.695312 530.261719 641.554688 C 529.722656 640.414062 529.210938 639.257812 528.730469 638.09375 C 528.246094 636.925781 527.792969 635.75 527.367188 634.558594 C 526.941406 633.371094 526.546875 632.171875 526.179688 630.964844 C 525.8125 629.757812 525.476562 628.539062 525.167969 627.316406 C 524.863281 626.089844 524.585938 624.859375 524.339844 623.621094 C 524.09375 622.382812 523.878906 621.140625 523.691406 619.890625 C 523.507812 618.640625 523.351562 617.390625 523.230469 616.132812 C 523.105469 614.875 523.011719 613.617188 522.949219 612.355469 C 522.886719 611.09375 522.855469 609.832031 522.855469 608.570312 Z M 522.855469 548.570312 " fill-opacity="1" fill-rule="nonzero"/><path fill="#212121" d="M 671.480469 470.664062 C 658.621094 450.917969 635.96875 441.734375 600 441.273438 C 564.03125 441.734375 541.378906 450.917969 528.519531 470.664062 C 515.664062 490.410156 522.855469 562.5 522.855469 562.5 L 527.601562 562.039062 C 527.601562 562.039062 528.140625 528.621094 535.410156 525.765625 C 548.265625 520.714844 550.957031 502.804688 552.398438 495.457031 C 553.835938 488.109375 576.734375 481.222656 600 481.222656 C 602.558594 481.222656 605.109375 481.320312 607.628906 481.480469 C 607.417969 482.632812 607.382812 483.785156 607.523438 484.949219 C 607.660156 486.109375 607.964844 487.222656 608.4375 488.292969 C 608.914062 489.363281 609.535156 490.335938 610.300781 491.21875 C 611.066406 492.101562 611.949219 492.851562 612.941406 493.46875 C 613.933594 494.085938 614.996094 494.542969 616.125 494.84375 C 617.257812 495.140625 618.40625 495.265625 619.574219 495.21875 C 620.742188 495.167969 621.878906 494.949219 622.980469 494.5625 C 624.082031 494.171875 625.105469 493.628906 626.042969 492.929688 C 626.042969 493.011719 626.019531 493.085938 626.019531 493.164062 C 626.015625 494.550781 626.203125 495.914062 626.574219 497.246094 C 626.945312 498.582031 627.488281 499.84375 628.207031 501.027344 C 628.925781 502.214844 629.792969 503.28125 630.800781 504.226562 C 631.8125 505.175781 632.933594 505.96875 634.164062 506.609375 C 635.394531 507.25 636.6875 507.710938 638.042969 507.996094 C 639.398438 508.28125 640.769531 508.375 642.152344 508.28125 C 643.535156 508.191406 644.878906 507.914062 646.1875 507.449219 C 647.496094 506.988281 648.714844 506.359375 649.847656 505.5625 C 650.21875 507.699219 650.828125 509.765625 651.671875 511.761719 C 652.519531 513.757812 653.582031 515.632812 654.859375 517.386719 C 656.140625 519.136719 657.601562 520.722656 659.242188 522.136719 C 660.886719 523.550781 662.667969 524.761719 664.589844 525.769531 C 671.855469 528.621094 672.398438 562.042969 672.398438 562.042969 L 677.144531 562.5 C 677.144531 562.5 684.335938 490.410156 671.480469 470.664062 Z M 671.480469 470.664062 " fill-opacity="1" fill-rule="nonzero"/><path fill="#fff362" d="M 777.941406 761.144531 C 773.007812 766.597656 767.835938 771.8125 762.417969 776.789062 C 757.003906 781.765625 751.375 786.480469 745.523438 790.941406 C 739.675781 795.398438 733.632812 799.578125 727.398438 803.480469 C 721.164062 807.382812 714.765625 810.988281 708.199219 814.300781 C 701.632812 817.613281 694.929688 820.617188 688.085938 823.3125 C 681.242188 826.007812 674.292969 828.382812 667.230469 830.4375 C 660.167969 832.492188 653.027344 834.214844 645.808594 835.613281 C 638.585938 837.011719 631.316406 838.074219 624 838.800781 C 616.113281 839.570312 608.144531 840 600 840 C 591.855469 840 583.886719 839.570312 576 838.800781 C 568.683594 838.074219 561.414062 837.011719 554.191406 835.613281 C 546.972656 834.214844 539.832031 832.492188 532.769531 830.4375 C 525.707031 828.382812 518.757812 826.007812 511.914062 823.3125 C 505.070312 820.617188 498.367188 817.613281 491.800781 814.300781 C 485.234375 810.988281 478.835938 807.382812 472.601562 803.480469 C 466.367188 799.578125 460.324219 795.398438 454.476562 790.941406 C 448.625 786.480469 442.996094 781.765625 437.582031 776.789062 C 432.164062 771.8125 426.992188 766.597656 422.058594 761.144531 C 423.230469 759.105469 424.507812 757.132812 425.886719 755.226562 C 427.261719 753.316406 428.734375 751.484375 430.296875 749.730469 C 431.863281 747.972656 433.515625 746.300781 435.25 744.714844 C 436.988281 743.128906 438.800781 741.632812 440.691406 740.234375 C 442.582031 738.832031 444.535156 737.53125 446.558594 736.332031 C 448.582031 735.132812 450.664062 734.039062 452.796875 733.050781 C 454.933594 732.066406 457.113281 731.191406 459.339844 730.425781 C 461.5625 729.664062 463.824219 729.015625 466.113281 728.484375 L 537 712.199219 L 544.542969 710.484375 L 581.570312 739.113281 L 586.371094 742.800781 L 600 753.34375 L 613.628906 742.800781 L 618.429688 739.113281 L 655.457031 710.484375 L 663 712.199219 L 733.886719 728.484375 C 736.175781 729.015625 738.4375 729.664062 740.660156 730.425781 C 742.886719 731.191406 745.066406 732.066406 747.203125 733.050781 C 749.335938 734.039062 751.417969 735.132812 753.441406 736.332031 C 755.464844 737.53125 757.417969 738.832031 759.308594 740.234375 C 761.199219 741.632812 763.011719 743.128906 764.75 744.714844 C 766.484375 746.300781 768.136719 747.972656 769.703125 749.730469 C 771.265625 751.484375 772.738281 753.316406 774.113281 755.226562 C 775.492188 757.132812 776.769531 759.105469 777.941406 761.144531 Z M 777.941406 761.144531 " fill-opacity="1" fill-rule="nonzero"/><path fill="#01314f" d="M 615 735.496094 L 600 743.878906 L 585 735.496094 L 568.816406 752.71875 L 586.835938 771.195312 L 613.164062 771.195312 L 631.183594 752.71875 Z M 615 735.496094 " fill-opacity="1" fill-rule="nonzero"/><path fill="#00406f" d="M 624 838.800781 C 616.113281 839.570312 608.144531 840 600 840 C 591.855469 840 583.886719 839.570312 576 838.800781 L 587.3125 771.171875 L 600 771 L 612.6875 771.171875 Z M 624 838.800781 " fill-opacity="1" fill-rule="nonzero"/><path fill="#ed8835" d="M 567.601562 771.78125 L 591.429688 734.972656 L 565.714844 705.609375 L 536.972656 712.21875 Z M 567.601562 771.78125 " fill-opacity="1" fill-rule="nonzero"/><path fill="#ed8835" d="M 663.027344 712.21875 L 634.285156 705.609375 L 608.570312 734.972656 L 632.398438 771.78125 Z M 663.027344 712.21875 " fill-opacity="1" fill-rule="nonzero"/></svg>