<svg xmlns="http://www.w3.org/2000/svg" xmlns:xlink="http://www.w3.org/1999/xlink" width="1600" zoomAndPan="magnify" viewBox="0 0 1200 1199.999942" height="1600" preserveAspectRatio="xMidYMid meet" version="1.0"><path fill="#ffca4e" d="M 839.144531 599.144531 C 839.144531 603.058594 839.050781 606.972656 838.859375 610.878906 C 838.664062 614.789062 838.378906 618.691406 837.996094 622.585938 C 837.609375 626.480469 837.132812 630.363281 836.558594 634.234375 C 835.984375 638.105469 835.3125 641.960938 834.550781 645.800781 C 833.789062 649.640625 832.929688 653.457031 831.980469 657.253906 C 831.027344 661.050781 829.984375 664.820312 828.847656 668.566406 C 827.710938 672.3125 826.484375 676.027344 825.167969 679.710938 C 823.847656 683.398438 822.441406 687.046875 820.941406 690.664062 C 819.445312 694.277344 817.859375 697.855469 816.183594 701.394531 C 814.511719 704.933594 812.753906 708.425781 810.90625 711.878906 C 809.0625 715.328125 807.132812 718.734375 805.121094 722.089844 C 803.109375 725.449219 801.015625 728.753906 798.84375 732.007812 C 796.667969 735.261719 794.414062 738.460938 792.082031 741.605469 C 789.753906 744.75 787.34375 747.832031 784.863281 750.859375 C 782.378906 753.882812 779.824219 756.847656 777.195312 759.746094 C 774.566406 762.644531 771.867188 765.480469 769.101562 768.246094 C 766.335938 771.015625 763.5 773.710938 760.601562 776.339844 C 757.699219 778.96875 754.738281 781.523438 751.710938 784.007812 C 748.6875 786.492188 745.601562 788.898438 742.460938 791.230469 C 739.316406 793.5625 736.117188 795.8125 732.863281 797.988281 C 729.609375 800.164062 726.300781 802.257812 722.945312 804.269531 C 719.589844 806.28125 716.183594 808.207031 712.734375 810.054688 C 709.28125 811.898438 705.785156 813.65625 702.246094 815.332031 C 698.710938 817.003906 695.132812 818.589844 691.515625 820.085938 C 687.902344 821.585938 684.25 822.992188 680.566406 824.3125 C 676.878906 825.628906 673.164062 826.859375 669.421875 827.992188 C 665.675781 829.128906 661.902344 830.171875 658.109375 831.125 C 654.3125 832.074219 650.492188 832.933594 646.65625 833.695312 C 642.816406 834.460938 638.960938 835.128906 635.089844 835.703125 C 631.21875 836.277344 627.335938 836.757812 623.441406 837.140625 C 619.546875 837.523438 615.644531 837.8125 611.734375 838.003906 C 607.824219 838.195312 603.914062 838.292969 600 838.292969 C 596.085938 838.292969 592.175781 838.195312 588.265625 838.003906 C 584.355469 837.8125 580.453125 837.523438 576.558594 837.140625 C 572.664062 836.757812 568.78125 836.277344 564.910156 835.703125 C 561.039062 835.128906 557.183594 834.460938 553.34375 833.695312 C 549.507812 832.933594 545.6875 832.074219 541.890625 831.125 C 538.097656 830.171875 534.324219 829.128906 530.578125 827.992188 C 526.835938 826.859375 523.121094 825.628906 519.433594 824.3125 C 515.75 822.992188 512.097656 821.585938 508.484375 820.085938 C 504.867188 818.589844 501.289062 817.003906 497.75 815.332031 C 494.214844 813.65625 490.71875 811.898438 487.265625 810.054688 C 483.816406 808.207031 480.410156 806.28125 477.054688 804.269531 C 473.699219 802.257812 470.390625 800.164062 467.136719 797.988281 C 463.882812 795.8125 460.683594 793.5625 457.539062 791.230469 C 454.398438 788.898438 451.3125 786.492188 448.289062 784.007812 C 445.261719 781.523438 442.300781 778.96875 439.398438 776.339844 C 436.5 773.710938 433.664062 771.015625 430.898438 768.246094 C 428.128906 765.480469 425.433594 762.644531 422.804688 759.746094 C 420.175781 756.847656 417.621094 753.882812 415.136719 750.859375 C 412.65625 747.832031 410.246094 744.75 407.917969 741.605469 C 405.585938 738.460938 403.332031 735.261719 401.15625 732.007812 C 398.984375 728.753906 396.890625 725.449219 394.878906 722.089844 C 392.867188 718.734375 390.9375 715.328125 389.09375 711.878906 C 387.246094 708.425781 385.488281 704.933594 383.816406 701.394531 C 382.140625 697.855469 380.554688 694.277344 379.058594 690.664062 C 377.558594 687.046875 376.152344 683.398438 374.832031 679.710938 C 373.515625 676.027344 372.289062 672.3125 371.152344 668.566406 C 370.015625 664.820312 368.972656 661.050781 368.019531 657.253906 C 367.070312 653.457031 366.210938 649.640625 365.449219 645.800781 C 364.6875 641.960938 364.015625 638.105469 363.441406 634.234375 C 362.867188 630.363281 362.390625 626.480469 362.003906 622.585938 C 361.621094 618.691406 361.335938 614.789062 361.140625 610.878906 C 360.949219 606.972656 360.855469 603.058594 360.855469 599.144531 C 360.855469 595.230469 360.949219 591.320312 361.140625 587.410156 C 361.335938 583.503906 361.621094 579.601562 362.003906 575.707031 C 362.390625 571.808594 362.867188 567.925781 363.441406 564.054688 C 364.015625 560.183594 364.6875 556.328125 365.449219 552.492188 C 366.210938 548.652344 367.070312 544.835938 368.019531 541.039062 C 368.972656 537.242188 370.015625 533.46875 371.152344 529.726562 C 372.289062 525.980469 373.515625 522.265625 374.832031 518.578125 C 376.152344 514.894531 377.558594 511.246094 379.058594 507.628906 C 380.554688 504.011719 382.140625 500.4375 383.816406 496.898438 C 385.488281 493.359375 387.246094 489.863281 389.09375 486.414062 C 390.9375 482.960938 392.867188 479.558594 394.878906 476.199219 C 396.890625 472.84375 398.984375 469.539062 401.15625 466.285156 C 403.332031 463.027344 405.585938 459.832031 407.917969 456.6875 C 410.246094 453.542969 412.65625 450.457031 415.136719 447.433594 C 417.621094 444.40625 420.175781 441.445312 422.804688 438.546875 C 425.433594 435.644531 428.128906 432.8125 430.898438 430.042969 C 433.664062 427.277344 436.5 424.578125 439.398438 421.949219 C 442.300781 419.320312 445.261719 416.765625 448.289062 414.285156 C 451.3125 411.800781 454.398438 409.394531 457.539062 407.0625 C 460.683594 404.730469 463.882812 402.476562 467.136719 400.304688 C 470.390625 398.128906 473.699219 396.035156 477.054688 394.023438 C 480.410156 392.011719 483.816406 390.082031 487.265625 388.238281 C 490.71875 386.394531 494.214844 384.632812 497.75 382.960938 C 501.289062 381.289062 504.867188 379.703125 508.484375 378.203125 C 512.097656 376.707031 515.75 375.296875 519.433594 373.980469 C 523.121094 372.660156 526.835938 371.433594 530.578125 370.296875 C 534.324219 369.160156 538.097656 368.117188 541.890625 367.167969 C 545.6875 366.214844 549.507812 365.359375 553.34375 364.59375 C 557.183594 363.832031 561.039062 363.164062 564.910156 362.589844 C 568.78125 362.015625 572.664062 361.535156 576.558594 361.152344 C 580.453125 360.769531 584.355469 360.480469 588.265625 360.289062 C 592.175781 360.097656 596.085938 360 600 360 C 603.914062 360 607.824219 360.097656 611.734375 360.289062 C 615.644531 360.480469 619.546875 360.769531 623.441406 361.152344 C 627.335938 361.535156 631.21875 362.015625 635.089844 362.589844 C 638.960938 363.164062 642.816406 363.832031 646.65625 364.59375 C 650.492188 365.359375 654.3125 366.214844 658.109375 367.167969 C 661.902344 368.117188 665.675781 369.160156 669.421875 370.296875 C 673.164062 371.433594 676.878906 372.660156 680.566406 373.980469 C 684.25 375.296875 687.902344 376.707031 691.515625 378.203125 C 695.132812 379.703125 698.710938 381.289062 702.246094 382.960938 C 705.785156 384.632812 709.28125 386.394531 712.734375 388.238281 C 716.183594 390.082031 719.589844 392.011719 722.945312 394.023438 C 726.300781 396.035156 729.609375 398.128906 732.863281 400.304688 C 736.117188 402.476562 739.316406 404.730469 742.460938 407.0625 C 745.601562 409.394531 748.6875 411.800781 751.710938 414.285156 C 754.738281 416.765625 757.699219 419.320312 760.601562 421.949219 C 763.5 424.578125 766.335938 427.277344 769.101562 430.042969 C 771.867188 432.8125 774.566406 435.644531 777.195312 438.546875 C 779.824219 441.445312 782.378906 444.40625 784.863281 447.433594 C 787.34375 450.457031 789.753906 453.542969 792.082031 456.6875 C 794.414062 459.832031 796.667969 463.027344 798.84375 466.285156 C 801.015625 469.539062 803.109375 472.84375 805.121094 476.199219 C 807.132812 479.558594 809.0625 482.960938 810.90625 486.414062 C 812.753906 489.863281 814.511719 493.359375 816.183594 496.898438 C 817.859375 500.4375 819.445312 504.011719 820.941406 507.628906 C 822.441406 511.246094 823.847656 514.894531 825.167969 518.578125 C 826.484375 522.265625 827.710938 525.980469 828.847656 529.726562 C 829.984375 533.46875 831.027344 537.242188 831.980469 541.039062 C 832.929688 544.835938 833.789062 548.652344 834.550781 552.492188 C 835.3125 556.328125 835.984375 560.183594 836.558594 564.054688 C 837.132812 567.925781 837.609375 571.808594 837.996094 575.707031 C 838.378906 579.601562 838.664062 583.503906 838.859375 587.410156 C 839.050781 591.320312 839.144531 595.230469 839.144531 599.144531 Z M 839.144531 599.144531 " fill-opacity="1" fill-rule="nonzero"/><path fill="#212121" d="M 717.894531 620.804688 C 706.914062 605.703125 712.40625 526.089844 695.933594 472.554688 C 679.460938 419.023438 644.457031 412.160156 600 411.246094 C 555.542969 412.160156 520.539062 419.023438 504.066406 472.554688 C 487.597656 526.089844 493.085938 605.703125 482.105469 620.804688 C 471.125 635.902344 460.140625 646.882812 464.261719 663.355469 C 468.378906 679.824219 497.507812 678.09375 497.507812 678.09375 C 497.507812 678.09375 488.710938 698.242188 505.914062 707.964844 C 525.34375 718.949219 542.5 699.042969 542.5 699.042969 C 542.921875 700.265625 543.414062 701.453125 543.984375 702.609375 C 544.554688 703.769531 545.195312 704.886719 545.902344 705.964844 C 546.613281 707.042969 547.390625 708.070312 548.230469 709.050781 C 549.070312 710.03125 549.96875 710.953125 550.921875 711.820312 C 551.878906 712.683594 552.886719 713.488281 553.945312 714.226562 C 555 714.96875 556.101562 715.636719 557.242188 716.238281 C 558.382812 716.839844 559.558594 717.367188 560.769531 717.820312 C 561.976562 718.273438 563.207031 718.648438 564.464844 718.945312 C 567.492188 719.414062 570.539062 719.632812 573.605469 719.605469 C 576.667969 719.582031 579.710938 719.308594 582.730469 718.789062 C 585.75 718.265625 588.710938 717.507812 591.609375 716.507812 C 594.503906 715.507812 597.300781 714.28125 600 712.824219 C 602.699219 714.28125 605.496094 715.507812 608.390625 716.507812 C 611.289062 717.507812 614.246094 718.269531 617.269531 718.789062 C 620.289062 719.308594 623.332031 719.582031 626.394531 719.609375 C 629.460938 719.636719 632.507812 719.414062 635.535156 718.949219 C 636.792969 718.648438 638.023438 718.273438 639.230469 717.824219 C 640.441406 717.371094 641.617188 716.84375 642.757812 716.242188 C 643.898438 715.640625 645 714.96875 646.054688 714.230469 C 647.113281 713.492188 648.121094 712.6875 649.078125 711.820312 C 650.03125 710.957031 650.929688 710.03125 651.769531 709.054688 C 652.609375 708.074219 653.386719 707.046875 654.097656 705.96875 C 654.804688 704.890625 655.445312 703.773438 656.015625 702.613281 C 656.585938 701.457031 657.078125 700.269531 657.5 699.046875 C 657.5 699.046875 674.65625 718.949219 694.085938 707.96875 C 711.289062 698.242188 702.492188 678.09375 702.492188 678.09375 C 702.492188 678.09375 731.621094 679.828125 735.738281 663.355469 C 739.859375 646.882812 728.875 635.902344 717.894531 620.804688 Z M 717.894531 620.804688 " fill-opacity="1" fill-rule="nonzero"/><path fill="#ffab91" d="M 779.019531 757.75 C 773.15625 764.355469 766.953125 770.617188 760.402344 776.535156 C 753.851562 782.453125 746.996094 787.996094 739.835938 793.160156 C 732.671875 798.324219 725.25 803.082031 717.566406 807.425781 C 709.882812 811.773438 701.980469 815.683594 693.863281 819.160156 C 683.25 823.644531 672.371094 827.375 661.238281 830.347656 C 655.34375 831.886719 649.453125 833.253906 643.386719 834.277344 C 629.050781 836.953125 614.585938 838.292969 600 838.292969 C 585.414062 838.292969 570.949219 836.953125 556.613281 834.277344 C 550.546875 833.253906 544.65625 831.886719 538.761719 830.347656 C 527.628906 827.375 516.75 823.644531 506.136719 819.160156 C 498.019531 815.683594 490.117188 811.773438 482.433594 807.425781 C 474.75 803.082031 467.324219 798.324219 460.164062 793.160156 C 453.003906 787.996094 446.148438 782.453125 439.597656 776.535156 C 433.046875 770.617188 426.84375 764.355469 420.980469 757.75 C 423.085938 754.535156 425.660156 751.757812 428.707031 749.414062 C 431.753906 747.070312 435.101562 745.292969 438.746094 744.085938 L 501.863281 723.246094 L 533.550781 712.824219 L 547.558594 708.214844 L 548.839844 707.785156 L 565.578125 702.234375 L 565.75 684.554688 L 565.835938 678.0625 L 634.164062 678.0625 L 634.164062 701.980469 L 651.160156 707.617188 L 652.527344 708.042969 L 666.449219 712.65625 L 698.050781 723.160156 L 761.253906 744.085938 C 764.898438 745.292969 768.246094 747.070312 771.292969 749.414062 C 774.339844 751.757812 776.914062 754.535156 779.019531 757.75 Z M 779.019531 757.75 " fill-opacity="1" fill-rule="nonzero"/><path fill="#212121" d="M 779.019531 757.75 C 773.15625 764.355469 766.953125 770.617188 760.402344 776.535156 C 753.851562 782.453125 746.996094 787.996094 739.835938 793.160156 C 732.671875 798.324219 725.25 803.082031 717.566406 807.425781 C 709.882812 811.773438 701.980469 815.683594 693.863281 819.160156 C 683.25 823.644531 672.371094 827.375 661.238281 830.347656 C 655.34375 831.886719 649.453125 833.253906 643.386719 834.277344 C 629.050781 836.953125 614.585938 838.292969 600 838.292969 C 585.414062 838.292969 570.949219 836.953125 556.613281 834.277344 C 550.546875 833.253906 544.65625 831.886719 538.761719 830.347656 C 527.628906 827.375 516.75 823.644531 506.136719 819.160156 C 498.019531 815.683594 490.117188 811.773438 482.433594 807.425781 C 474.75 803.082031 467.324219 798.324219 460.164062 793.160156 C 453.003906 787.996094 446.148438 782.453125 439.597656 776.535156 C 433.046875 770.617188 426.84375 764.355469 420.980469 757.75 C 423.085938 754.535156 425.660156 751.757812 428.707031 749.414062 C 431.753906 747.070312 435.101562 745.292969 438.746094 744.085938 L 501.863281 723.246094 L 533.550781 712.824219 L 531.585938 765.609375 L 533.296875 766.207031 L 548.582031 771.585938 L 600 789.609375 L 651.417969 771.585938 L 666.703125 766.207031 L 668.414062 765.609375 L 666.449219 712.65625 L 698.050781 723.160156 L 761.253906 744.085938 C 764.898438 745.292969 768.246094 747.070312 771.292969 749.414062 C 774.339844 751.757812 776.914062 754.535156 779.019531 757.75 Z M 779.019531 757.75 " fill-opacity="1" fill-rule="nonzero"/><path fill="#cbcfd1" d="M 664.738281 818.476562 C 663.714844 822.578125 662.605469 826.503906 661.238281 830.347656 C 655.34375 831.886719 649.453125 833.253906 643.386719 834.277344 C 629.050781 836.953125 614.585938 838.292969 600 838.292969 C 585.414062 838.292969 570.949219 836.953125 556.613281 834.277344 C 550.546875 833.253906 544.65625 831.886719 538.761719 830.347656 C 537.394531 826.503906 536.285156 822.578125 535.261719 818.476562 C 527.828125 787.472656 530.820312 772.441406 533.296875 766.207031 C 533.753906 764.902344 534.410156 763.707031 535.261719 762.621094 L 544.738281 760.484375 L 548.15625 761.851562 C 558.234375 766.035156 587.53125 777.566406 600 777.566406 C 612.46875 777.566406 641.765625 766.035156 651.84375 761.851562 L 655.261719 760.484375 L 664.742188 762.621094 C 665.589844 763.707031 666.246094 764.902344 666.703125 766.207031 C 669.179688 772.441406 672.171875 787.472656 664.738281 818.476562 Z M 664.738281 818.476562 " fill-opacity="1" fill-rule="nonzero"/><path fill="#464646" d="M 548.582031 771.585938 C 549.953125 792.652344 552.628906 813.546875 556.613281 834.277344 C 550.546875 833.253906 544.65625 831.886719 538.761719 830.347656 C 527.628906 827.375 516.75 823.644531 506.136719 819.160156 L 498.535156 811.386719 L 511.175781 778.503906 L 484.78125 756.042969 L 501.863281 723.246094 L 533.550781 712.824219 L 547.558594 708.214844 L 548.839844 707.785156 C 548.753906 708.382812 548.753906 708.980469 548.667969 709.578125 C 547.460938 726.992188 547.289062 744.417969 548.15625 761.851562 C 548.242188 765.097656 548.414062 768.339844 548.582031 771.585938 Z M 548.582031 771.585938 " fill-opacity="1" fill-rule="nonzero"/><path fill="#464646" d="M 688.824219 778.503906 L 701.464844 811.386719 L 693.863281 819.160156 C 683.25 823.644531 672.371094 827.375 661.238281 830.347656 C 655.34375 831.886719 649.453125 833.253906 643.386719 834.277344 C 647.371094 813.546875 650.046875 792.652344 651.417969 771.585938 C 651.585938 768.339844 651.757812 765.097656 651.84375 761.851562 C 652.710938 744.417969 652.539062 726.992188 651.332031 709.578125 C 651.246094 708.898438 651.246094 708.214844 651.160156 707.617188 L 652.527344 708.042969 L 666.449219 712.65625 L 698.050781 723.160156 L 715.21875 756.042969 Z M 688.824219 778.503906 " fill-opacity="1" fill-rule="nonzero"/><path fill="#ea7760" d="M 727.601562 582.0625 C 727.597656 580.957031 727.542969 579.851562 727.433594 578.75 C 727.324219 577.648438 727.164062 576.554688 726.949219 575.46875 C 726.730469 574.382812 726.464844 573.308594 726.144531 572.25 C 725.824219 571.191406 725.453125 570.148438 725.035156 569.125 C 724.613281 568.101562 724.140625 567.101562 723.625 566.121094 C 723.105469 565.144531 722.542969 564.191406 721.929688 563.269531 C 721.320312 562.347656 720.664062 561.453125 719.96875 560.59375 C 719.269531 559.734375 718.53125 558.910156 717.753906 558.121094 C 716.976562 557.335938 716.164062 556.585938 715.3125 555.875 C 714.464844 555.167969 713.582031 554.5 712.667969 553.878906 C 711.75 553.253906 710.808594 552.675781 709.835938 552.144531 C 708.867188 551.613281 707.871094 551.132812 706.851562 550.695312 C 705.835938 550.261719 704.796875 549.875 703.742188 549.542969 C 702.6875 549.207031 701.617188 548.925781 700.535156 548.695312 C 699.453125 548.464844 698.359375 548.289062 697.261719 548.164062 C 696.160156 548.039062 695.058594 547.96875 693.949219 547.953125 L 693.949219 547.898438 L 676.867188 547.898438 L 676.867188 616.226562 L 693.949219 616.226562 L 693.949219 616.175781 C 695.058594 616.160156 696.160156 616.089844 697.261719 615.964844 C 698.359375 615.839844 699.453125 615.664062 700.535156 615.433594 C 701.617188 615.203125 702.6875 614.917969 703.742188 614.585938 C 704.796875 614.25 705.835938 613.867188 706.851562 613.433594 C 707.871094 612.996094 708.867188 612.515625 709.835938 611.980469 C 710.808594 611.449219 711.75 610.875 712.667969 610.25 C 713.582031 609.625 714.464844 608.960938 715.3125 608.25 C 716.164062 607.542969 716.976562 606.792969 717.753906 606.003906 C 718.53125 605.21875 719.269531 604.394531 719.96875 603.535156 C 720.664062 602.671875 721.320312 601.78125 721.929688 600.859375 C 722.542969 599.933594 723.105469 598.984375 723.625 598.007812 C 724.140625 597.027344 724.613281 596.027344 725.035156 595.003906 C 725.453125 593.980469 725.824219 592.9375 726.144531 591.878906 C 726.464844 590.816406 726.730469 589.746094 726.949219 588.660156 C 727.164062 587.574219 727.324219 586.480469 727.433594 585.378906 C 727.542969 584.277344 727.597656 583.171875 727.601562 582.0625 Z M 727.601562 582.0625 " fill-opacity="1" fill-rule="nonzero"/><path fill="#ea7760" d="M 506.050781 547.898438 C 504.929688 547.898438 503.816406 547.957031 502.703125 548.066406 C 501.585938 548.175781 500.480469 548.339844 499.386719 548.558594 C 498.289062 548.773438 497.203125 549.046875 496.132812 549.371094 C 495.0625 549.695312 494.007812 550.074219 492.976562 550.5 C 491.941406 550.929688 490.933594 551.40625 489.945312 551.933594 C 488.957031 552.460938 488 553.035156 487.070312 553.65625 C 486.140625 554.28125 485.242188 554.945312 484.375 555.65625 C 483.511719 556.363281 482.683594 557.117188 481.890625 557.90625 C 481.101562 558.699219 480.351562 559.527344 479.640625 560.390625 C 478.929688 561.253906 478.265625 562.152344 477.644531 563.082031 C 477.023438 564.015625 476.449219 564.972656 475.921875 565.960938 C 475.394531 566.945312 474.914062 567.957031 474.488281 568.988281 C 474.058594 570.023438 473.683594 571.074219 473.355469 572.148438 C 473.03125 573.21875 472.761719 574.300781 472.542969 575.398438 C 472.324219 576.496094 472.160156 577.601562 472.050781 578.714844 C 471.941406 579.828125 471.886719 580.945312 471.886719 582.0625 C 471.886719 583.183594 471.941406 584.300781 472.050781 585.414062 C 472.160156 586.527344 472.324219 587.632812 472.542969 588.730469 C 472.761719 589.828125 473.03125 590.910156 473.355469 591.980469 C 473.683594 593.050781 474.058594 594.105469 474.488281 595.136719 C 474.914062 596.171875 475.394531 597.183594 475.921875 598.167969 C 476.449219 599.15625 477.023438 600.113281 477.644531 601.042969 C 478.265625 601.976562 478.929688 602.871094 479.640625 603.738281 C 480.351562 604.601562 481.101562 605.429688 481.890625 606.222656 C 482.683594 607.011719 483.511719 607.761719 484.375 608.472656 C 485.242188 609.183594 486.140625 609.847656 487.070312 610.46875 C 488 611.089844 488.957031 611.667969 489.945312 612.195312 C 490.933594 612.722656 491.941406 613.199219 492.976562 613.628906 C 494.007812 614.054688 495.0625 614.433594 496.132812 614.757812 C 497.203125 615.082031 498.289062 615.351562 499.386719 615.570312 C 500.480469 615.789062 501.585938 615.953125 502.703125 616.0625 C 503.816406 616.171875 504.929688 616.226562 506.050781 616.226562 L 523.132812 616.226562 L 523.132812 547.898438 Z M 506.050781 547.898438 " fill-opacity="1" fill-rule="nonzero"/><path fill="#ea7760" d="M 565.835938 678.089844 L 634.164062 678.089844 L 634.164062 701.636719 L 565.835938 701.636719 Z M 565.835938 678.089844 " fill-opacity="1" fill-rule="nonzero"/><path fill="#ffab91" d="M 507.828125 533.984375 C 512.734375 487.875 523.949219 453.949219 600 453.949219 C 676.050781 453.949219 687.265625 487.875 692.171875 533.984375 L 700.550781 612.695312 C 700.710938 613.796875 700.839844 614.902344 700.941406 616.007812 C 701.042969 617.117188 701.113281 618.226562 701.15625 619.339844 C 701.199219 620.449219 701.210938 621.5625 701.195312 622.675781 C 701.179688 623.789062 701.132812 624.898438 701.058594 626.007812 C 700.980469 627.121094 700.878906 628.226562 700.742188 629.332031 C 700.609375 630.4375 700.445312 631.535156 700.25 632.632812 C 700.058594 633.726562 699.835938 634.816406 699.585938 635.902344 C 699.335938 636.984375 699.054688 638.0625 698.746094 639.132812 C 698.4375 640.199219 698.101562 641.261719 697.738281 642.3125 C 697.375 643.363281 696.980469 644.40625 696.5625 645.433594 C 696.144531 646.464844 695.695312 647.484375 695.222656 648.492188 C 694.75 649.5 694.246094 650.492188 693.722656 651.472656 C 693.195312 652.453125 692.640625 653.417969 692.066406 654.367188 C 691.488281 655.320312 690.882812 656.253906 690.257812 657.171875 C 689.628906 658.089844 688.976562 658.992188 688.300781 659.878906 C 687.625 660.761719 686.929688 661.628906 686.207031 662.472656 C 685.484375 663.320312 684.742188 664.148438 683.976562 664.957031 C 683.210938 665.765625 682.425781 666.550781 681.617188 667.316406 C 680.808594 668.082031 679.984375 668.824219 679.136719 669.546875 C 678.289062 670.269531 677.421875 670.96875 676.539062 671.644531 C 675.65625 672.320312 674.753906 672.972656 673.835938 673.601562 C 672.917969 674.226562 671.984375 674.832031 671.03125 675.410156 C 670.082031 675.988281 669.117188 676.539062 668.136719 677.066406 C 667.15625 677.59375 666.164062 678.09375 665.15625 678.570312 C 664.148438 679.042969 663.132812 679.492188 662.101562 679.910156 C 661.070312 680.332031 660.03125 680.722656 658.980469 681.089844 C 657.929688 681.453125 656.867188 681.789062 655.800781 682.097656 C 654.730469 682.40625 653.652344 682.6875 652.570312 682.9375 C 651.484375 683.191406 650.394531 683.414062 649.300781 683.605469 C 648.203125 683.800781 647.105469 683.964844 646 684.097656 C 644.894531 684.234375 643.789062 684.339844 642.675781 684.414062 C 641.566406 684.492188 640.457031 684.539062 639.34375 684.554688 L 560.65625 684.554688 C 559.542969 684.539062 558.433594 684.492188 557.320312 684.414062 C 556.210938 684.339844 555.105469 684.234375 554 684.097656 C 552.894531 683.964844 551.796875 683.800781 550.699219 683.605469 C 549.605469 683.414062 548.515625 683.191406 547.429688 682.9375 C 546.347656 682.6875 545.269531 682.40625 544.199219 682.097656 C 543.132812 681.789062 542.070312 681.453125 541.019531 681.089844 C 539.96875 680.722656 538.929688 680.332031 537.898438 679.910156 C 536.867188 679.492188 535.851562 679.042969 534.84375 678.570312 C 533.835938 678.09375 532.84375 677.59375 531.863281 677.066406 C 530.882812 676.539062 529.917969 675.988281 528.96875 675.410156 C 528.015625 674.832031 527.082031 674.226562 526.164062 673.601562 C 525.246094 672.972656 524.34375 672.320312 523.460938 671.644531 C 522.578125 670.96875 521.710938 670.269531 520.863281 669.546875 C 520.015625 668.824219 519.191406 668.082031 518.382812 667.316406 C 517.574219 666.550781 516.789062 665.765625 516.023438 664.957031 C 515.257812 664.148438 514.515625 663.320312 513.792969 662.472656 C 513.070312 661.628906 512.375 660.761719 511.699219 659.878906 C 511.023438 658.992188 510.371094 658.089844 509.742188 657.171875 C 509.117188 656.253906 508.511719 655.320312 507.933594 654.367188 C 507.359375 653.417969 506.804688 652.453125 506.277344 651.472656 C 505.75 650.492188 505.25 649.5 504.777344 648.492188 C 504.304688 647.484375 503.855469 646.464844 503.4375 645.433594 C 503.019531 644.40625 502.625 643.363281 502.261719 642.3125 C 501.898438 641.261719 501.5625 640.199219 501.253906 639.132812 C 500.945312 638.0625 500.664062 636.984375 500.414062 635.902344 C 500.164062 634.816406 499.941406 633.726562 499.75 632.632812 C 499.554688 631.535156 499.390625 630.4375 499.257812 629.332031 C 499.121094 628.226562 499.019531 627.121094 498.941406 626.007812 C 498.867188 624.898438 498.820312 623.789062 498.804688 622.675781 C 498.789062 621.5625 498.800781 620.449219 498.84375 619.339844 C 498.886719 618.226562 498.957031 617.117188 499.058594 616.007812 C 499.160156 614.902344 499.289062 613.796875 499.449219 612.695312 Z M 507.828125 533.984375 " fill-opacity="1" fill-rule="nonzero"/><path fill="#212121" d="M 679.765625 465.695312 C 666.1875 441.011719 588.71875 430.644531 567.042969 447.320312 C 566.542969 446.46875 565.976562 445.664062 565.34375 444.902344 C 564.710938 444.144531 564.019531 443.445312 563.269531 442.800781 C 562.519531 442.15625 561.71875 441.578125 560.875 441.0625 C 560.027344 440.550781 559.148438 440.113281 558.230469 439.746094 C 557.308594 439.378906 556.367188 439.089844 555.402344 438.882812 C 554.4375 438.671875 553.460938 438.542969 552.472656 438.492188 C 551.484375 438.445312 550.5 438.476562 549.515625 438.589844 C 548.535156 438.707031 547.570312 438.898438 546.621094 439.175781 C 527.402344 445.410156 503.914062 498.332031 506.050781 547.898438 C 506.050781 547.898438 513.371094 520.597656 523.132812 512.363281 C 532.894531 504.128906 556.914062 504.128906 568.925781 483.539062 C 569.78125 482.042969 570.503906 480.488281 571.097656 478.867188 C 573.847656 484.214844 577.09375 489.242188 580.828125 493.953125 C 584.5625 498.664062 588.714844 502.972656 593.289062 506.875 C 619.371094 528.835938 661.5625 518.195312 676.867188 526.089844 C 692.171875 533.984375 695.128906 561.75 695.128906 561.75 C 695.128906 561.75 694.863281 493.148438 679.765625 465.695312 Z M 679.765625 465.695312 " fill-opacity="1" fill-rule="nonzero"/></svg>