<svg xmlns="http://www.w3.org/2000/svg" xmlns:xlink="http://www.w3.org/1999/xlink" width="1600" zoomAndPan="magnify" viewBox="0 0 1200 1199.999942" height="1600" preserveAspectRatio="xMidYMid meet" version="1.0"><defs><clipPath id="b34b52c7da"><path d="M 360 360 L 840 360 L 840 840 L 360 840 Z M 360 360 " clip-rule="nonzero"/></clipPath><clipPath id="049eba4db6"><path d="M 435.527344 701 L 764.992188 701 L 764.992188 840 L 435.527344 840 Z M 435.527344 701 " clip-rule="nonzero"/></clipPath></defs><g clip-path="url(#b34b52c7da)"><path fill="#e1efff" d="M 840.054688 600.027344 C 840.054688 467.824219 732.226562 360 600.027344 360 C 467.824219 360 360 467.824219 360 600.027344 C 360 732.226562 467.824219 840.054688 600.027344 840.054688 C 732.226562 840.054688 840.054688 732.226562 840.054688 600.027344 " fill-opacity="1" fill-rule="evenodd"/></g><path fill="#784132" d="M 627.722656 682.085938 C 632.582031 682.085938 637.414062 681.347656 642.035156 679.832031 C 642.070312 679.824219 642.09375 679.816406 642.125 679.804688 C 648.886719 677.578125 655.558594 674.644531 662.660156 674.257812 C 668.785156 673.921875 674.847656 675.507812 680.976562 675.722656 C 687.316406 675.945312 691.925781 675.5 697.691406 672.875 L 697.691406 532.082031 C 697.691406 478.140625 653.960938 434.410156 600.019531 434.410156 C 546.082031 434.410156 502.355469 478.140625 502.355469 532.082031 L 502.355469 672.875 C 508.121094 675.503906 512.726562 675.945312 519.066406 675.722656 C 525.195312 675.507812 531.257812 673.921875 537.382812 674.257812 C 544.488281 674.644531 551.164062 677.578125 557.917969 679.804688 C 557.949219 679.8125 557.980469 679.824219 558.007812 679.832031 C 562.625 681.347656 567.460938 682.085938 572.324219 682.085938 L 627.722656 682.085938 " fill-opacity="1" fill-rule="evenodd"/><g clip-path="url(#049eba4db6)"><path fill="#bfe69f" d="M 764.167969 775.15625 L 764.167969 750.554688 C 764.167969 723.238281 742.023438 701.089844 714.707031 701.089844 L 485.339844 701.089844 C 458.027344 701.089844 435.878906 723.234375 435.878906 750.554688 L 435.878906 775.15625 C 478.808594 815.40625 536.539062 840.054688 600.027344 840.054688 C 663.515625 840.054688 721.238281 815.40625 764.167969 775.15625 " fill-opacity="1" fill-rule="evenodd"/></g><path fill="#f2b9a3" d="M 647.019531 566.976562 L 674.65625 566.976562 C 677.605469 565.832031 680.859375 565.289062 684.257812 565.488281 C 695.902344 566.160156 705.253906 575.660156 705.75 587.3125 C 706.316406 600.402344 695.871094 611.203125 682.902344 611.203125 C 679.421875 611.203125 676.125 610.421875 673.175781 609.035156 L 647.011719 609.035156 L 647.011719 566.976562 L 647.019531 566.976562 " fill-opacity="1" fill-rule="evenodd"/><path fill="#f2b9a3" d="M 567.851562 566.976562 L 526.878906 566.976562 C 524.320312 565.992188 521.535156 565.445312 518.628906 565.445312 C 505.824219 565.445312 495.476562 575.964844 495.761719 588.832031 C 496.019531 600.867188 505.730469 610.738281 517.761719 611.183594 C 521.5625 611.324219 525.160156 610.535156 528.351562 609.03125 L 567.847656 609.03125 L 567.847656 566.976562 L 567.851562 566.976562 " fill-opacity="1" fill-rule="evenodd"/><path fill="#aacc8b" d="M 622.308594 767.160156 L 600.015625 745.296875 L 631.402344 701.097656 L 667.539062 701.097656 L 622.308594 767.160156 " fill-opacity="1" fill-rule="evenodd"/><path fill="#aacc8b" d="M 532.488281 701.097656 L 568.628906 701.097656 L 600.015625 745.296875 L 577.722656 767.160156 L 532.488281 701.097656 " fill-opacity="1" fill-rule="evenodd"/><path fill="#f2b9a3" d="M 600.015625 745.296875 L 568.628906 701.097656 L 572.988281 643.925781 L 627.042969 643.925781 L 631.402344 701.097656 L 600.015625 745.296875 " fill-opacity="1" fill-rule="evenodd"/><path fill="#f4baa6" d="M 526.871094 551.613281 L 526.871094 594.242188 C 526.871094 635.054688 559.957031 668.132812 600.765625 668.132812 C 641.574219 668.132812 674.660156 635.054688 674.660156 594.242188 L 674.660156 551.613281 C 674.660156 551.613281 569.308594 560.796875 569.308594 479.816406 C 569.308594 479.816406 572.617188 527.136719 526.871094 551.613281 " fill-opacity="1" fill-rule="evenodd"/></svg>