<svg xmlns="http://www.w3.org/2000/svg" xmlns:xlink="http://www.w3.org/1999/xlink" width="1600" zoomAndPan="magnify" viewBox="0 0 1200 1199.999942" height="1600" preserveAspectRatio="xMidYMid meet" version="1.0"><path fill="#55adff" d="M 839.144531 599.144531 C 839.144531 603.058594 839.050781 606.972656 838.859375 610.878906 C 838.664062 614.789062 838.378906 618.691406 837.996094 622.585938 C 837.609375 626.480469 837.132812 630.363281 836.558594 634.234375 C 835.984375 638.105469 835.3125 641.960938 834.550781 645.800781 C 833.789062 649.640625 832.929688 653.457031 831.980469 657.253906 C 831.027344 661.050781 829.984375 664.820312 828.847656 668.566406 C 827.710938 672.3125 826.484375 676.027344 825.167969 679.710938 C 823.847656 683.398438 822.441406 687.046875 820.941406 690.664062 C 819.445312 694.277344 817.859375 697.855469 816.183594 701.394531 C 814.511719 704.933594 812.753906 708.425781 810.90625 711.878906 C 809.0625 715.328125 807.132812 718.734375 805.121094 722.089844 C 803.109375 725.449219 801.015625 728.753906 798.84375 732.007812 C 796.667969 735.261719 794.414062 738.460938 792.082031 741.605469 C 789.753906 744.75 787.34375 747.832031 784.863281 750.859375 C 782.378906 753.882812 779.824219 756.847656 777.195312 759.746094 C 774.566406 762.644531 771.867188 765.480469 769.101562 768.246094 C 766.335938 771.015625 763.5 773.710938 760.601562 776.339844 C 757.699219 778.96875 754.738281 781.523438 751.710938 784.007812 C 748.6875 786.492188 745.601562 788.898438 742.460938 791.230469 C 739.316406 793.5625 736.117188 795.8125 732.863281 797.988281 C 729.609375 800.164062 726.300781 802.257812 722.945312 804.269531 C 719.589844 806.28125 716.183594 808.207031 712.734375 810.054688 C 709.28125 811.898438 705.785156 813.65625 702.246094 815.332031 C 698.710938 817.003906 695.132812 818.589844 691.515625 820.085938 C 687.902344 821.585938 684.25 822.992188 680.566406 824.3125 C 676.878906 825.628906 673.164062 826.859375 669.421875 827.992188 C 665.675781 829.128906 661.902344 830.171875 658.109375 831.125 C 654.3125 832.074219 650.492188 832.933594 646.65625 833.695312 C 642.816406 834.460938 638.960938 835.128906 635.089844 835.703125 C 631.21875 836.277344 627.335938 836.757812 623.441406 837.140625 C 619.546875 837.523438 615.644531 837.8125 611.734375 838.003906 C 607.824219 838.195312 603.914062 838.292969 600 838.292969 C 596.085938 838.292969 592.175781 838.195312 588.265625 838.003906 C 584.355469 837.8125 580.453125 837.523438 576.558594 837.140625 C 572.664062 836.757812 568.78125 836.277344 564.910156 835.703125 C 561.039062 835.128906 557.183594 834.460938 553.34375 833.695312 C 549.507812 832.933594 545.6875 832.074219 541.890625 831.125 C 538.097656 830.171875 534.324219 829.128906 530.578125 827.992188 C 526.835938 826.859375 523.121094 825.628906 519.433594 824.3125 C 515.75 822.992188 512.097656 821.585938 508.484375 820.085938 C 504.867188 818.589844 501.289062 817.003906 497.75 815.332031 C 494.214844 813.65625 490.71875 811.898438 487.265625 810.054688 C 483.816406 808.207031 480.410156 806.28125 477.054688 804.269531 C 473.699219 802.257812 470.390625 800.164062 467.136719 797.988281 C 463.882812 795.8125 460.683594 793.5625 457.539062 791.230469 C 454.398438 788.898438 451.3125 786.492188 448.289062 784.007812 C 445.261719 781.523438 442.300781 778.96875 439.398438 776.339844 C 436.5 773.710938 433.664062 771.015625 430.898438 768.246094 C 428.128906 765.480469 425.433594 762.644531 422.804688 759.746094 C 420.175781 756.847656 417.621094 753.882812 415.136719 750.859375 C 412.65625 747.832031 410.246094 744.75 407.917969 741.605469 C 405.585938 738.460938 403.332031 735.261719 401.15625 732.007812 C 398.984375 728.753906 396.890625 725.449219 394.878906 722.089844 C 392.867188 718.734375 390.9375 715.328125 389.09375 711.878906 C 387.246094 708.425781 385.488281 704.933594 383.816406 701.394531 C 382.140625 697.855469 380.554688 694.277344 379.058594 690.664062 C 377.558594 687.046875 376.152344 683.398438 374.832031 679.710938 C 373.515625 676.027344 372.289062 672.3125 371.152344 668.566406 C 370.015625 664.820312 368.972656 661.050781 368.019531 657.253906 C 367.070312 653.457031 366.210938 649.640625 365.449219 645.800781 C 364.6875 641.960938 364.015625 638.105469 363.441406 634.234375 C 362.867188 630.363281 362.390625 626.480469 362.003906 622.585938 C 361.621094 618.691406 361.335938 614.789062 361.140625 610.878906 C 360.949219 606.972656 360.855469 603.058594 360.855469 599.144531 C 360.855469 595.230469 360.949219 591.320312 361.140625 587.410156 C 361.335938 583.503906 361.621094 579.601562 362.003906 575.707031 C 362.390625 571.808594 362.867188 567.925781 363.441406 564.054688 C 364.015625 560.183594 364.6875 556.328125 365.449219 552.492188 C 366.210938 548.652344 367.070312 544.835938 368.019531 541.039062 C 368.972656 537.242188 370.015625 533.46875 371.152344 529.726562 C 372.289062 525.980469 373.515625 522.265625 374.832031 518.578125 C 376.152344 514.894531 377.558594 511.246094 379.058594 507.628906 C 380.554688 504.011719 382.140625 500.4375 383.816406 496.898438 C 385.488281 493.359375 387.246094 489.863281 389.09375 486.414062 C 390.9375 482.960938 392.867188 479.558594 394.878906 476.199219 C 396.890625 472.84375 398.984375 469.539062 401.15625 466.285156 C 403.332031 463.027344 405.585938 459.832031 407.917969 456.6875 C 410.246094 453.542969 412.65625 450.457031 415.136719 447.433594 C 417.621094 444.40625 420.175781 441.445312 422.804688 438.546875 C 425.433594 435.644531 428.128906 432.8125 430.898438 430.042969 C 433.664062 427.277344 436.5 424.578125 439.398438 421.949219 C 442.300781 419.320312 445.261719 416.765625 448.289062 414.285156 C 451.3125 411.800781 454.398438 409.394531 457.539062 407.0625 C 460.683594 404.730469 463.882812 402.476562 467.136719 400.304688 C 470.390625 398.128906 473.699219 396.035156 477.054688 394.023438 C 480.410156 392.011719 483.816406 390.082031 487.265625 388.238281 C 490.71875 386.394531 494.214844 384.632812 497.75 382.960938 C 501.289062 381.289062 504.867188 379.703125 508.484375 378.203125 C 512.097656 376.707031 515.75 375.296875 519.433594 373.980469 C 523.121094 372.660156 526.835938 371.433594 530.578125 370.296875 C 534.324219 369.160156 538.097656 368.117188 541.890625 367.167969 C 545.6875 366.214844 549.507812 365.359375 553.34375 364.59375 C 557.183594 363.832031 561.039062 363.164062 564.910156 362.589844 C 568.78125 362.015625 572.664062 361.535156 576.558594 361.152344 C 580.453125 360.769531 584.355469 360.480469 588.265625 360.289062 C 592.175781 360.097656 596.085938 360 600 360 C 603.914062 360 607.824219 360.097656 611.734375 360.289062 C 615.644531 360.480469 619.546875 360.769531 623.441406 361.152344 C 627.335938 361.535156 631.21875 362.015625 635.089844 362.589844 C 638.960938 363.164062 642.816406 363.832031 646.65625 364.59375 C 650.492188 365.359375 654.3125 366.214844 658.109375 367.167969 C 661.902344 368.117188 665.675781 369.160156 669.421875 370.296875 C 673.164062 371.433594 676.878906 372.660156 680.566406 373.980469 C 684.25 375.296875 687.902344 376.707031 691.515625 378.203125 C 695.132812 379.703125 698.710938 381.289062 702.246094 382.960938 C 705.785156 384.632812 709.28125 386.394531 712.734375 388.238281 C 716.183594 390.082031 719.589844 392.011719 722.945312 394.023438 C 726.300781 396.035156 729.609375 398.128906 732.863281 400.304688 C 736.117188 402.476562 739.316406 404.730469 742.460938 407.0625 C 745.601562 409.394531 748.6875 411.800781 751.710938 414.285156 C 754.738281 416.765625 757.699219 419.320312 760.601562 421.949219 C 763.5 424.578125 766.335938 427.277344 769.101562 430.042969 C 771.867188 432.8125 774.566406 435.644531 777.195312 438.546875 C 779.824219 441.445312 782.378906 444.40625 784.863281 447.433594 C 787.34375 450.457031 789.753906 453.542969 792.082031 456.6875 C 794.414062 459.832031 796.667969 463.027344 798.84375 466.285156 C 801.015625 469.539062 803.109375 472.84375 805.121094 476.199219 C 807.132812 479.558594 809.0625 482.960938 810.90625 486.414062 C 812.753906 489.863281 814.511719 493.359375 816.183594 496.898438 C 817.859375 500.4375 819.445312 504.011719 820.941406 507.628906 C 822.441406 511.246094 823.847656 514.894531 825.167969 518.578125 C 826.484375 522.265625 827.710938 525.980469 828.847656 529.726562 C 829.984375 533.46875 831.027344 537.242188 831.980469 541.039062 C 832.929688 544.835938 833.789062 548.652344 834.550781 552.492188 C 835.3125 556.328125 835.984375 560.183594 836.558594 564.054688 C 837.132812 567.925781 837.609375 571.808594 837.996094 575.707031 C 838.378906 579.601562 838.664062 583.503906 838.859375 587.410156 C 839.050781 591.320312 839.144531 595.230469 839.144531 599.144531 Z M 839.144531 599.144531 " fill-opacity="1" fill-rule="nonzero"/><path fill="#b27232" d="M 729.820312 760.484375 C 734.609375 771.078125 737.65625 782.15625 738.960938 793.707031 C 734.476562 797.019531 729.835938 800.09375 725.039062 802.933594 C 723.875 798.074219 722.253906 793.378906 720.171875 788.839844 C 715.695312 780.445312 710.285156 772.699219 703.941406 765.609375 C 701.753906 762.851562 699.734375 759.972656 697.878906 756.980469 L 668.070312 756.726562 L 652.097656 756.640625 L 547.816406 755.785156 L 531.929688 755.699219 L 502.976562 755.445312 L 488.96875 755.359375 C 488.96875 755.359375 488.882812 752.96875 488.625 748.613281 C 488.371094 743.828125 488.113281 736.738281 487.6875 727.941406 C 486.320312 697.539062 484.355469 647.316406 483.84375 608.027344 C 483.28125 590.929688 483.59375 573.847656 484.78125 556.78125 C 484.867188 556.269531 484.953125 555.671875 485.039062 555.160156 C 485.875 550.027344 487.074219 544.984375 488.632812 540.023438 C 490.195312 535.066406 492.105469 530.246094 494.359375 525.558594 C 496.617188 520.875 499.195312 516.378906 502.097656 512.0625 C 505 507.75 508.195312 503.667969 511.6875 499.816406 C 518.546875 491.929688 525.976562 484.628906 533.984375 477.910156 C 541.992188 471.191406 550.472656 465.140625 559.429688 459.757812 C 560.855469 458.835938 562.335938 458.007812 563.871094 457.28125 C 571.316406 453.429688 579.109375 450.511719 587.253906 448.535156 C 595.398438 446.554688 603.660156 445.570312 612.042969 445.578125 C 613.585938 442.488281 615.5 439.644531 617.789062 437.054688 C 620.078125 434.460938 622.660156 432.207031 625.539062 430.292969 C 628.140625 428.746094 630.847656 427.410156 633.65625 426.285156 C 636.464844 425.15625 639.34375 424.253906 642.292969 423.570312 C 645.242188 422.890625 648.226562 422.441406 651.246094 422.222656 C 654.265625 422 657.28125 422.015625 660.300781 422.261719 C 691.898438 423.03125 709.238281 440.113281 720.171875 481.28125 C 732.8125 528.683594 732.554688 603.417969 735.289062 625.367188 C 738.019531 647.316406 747.671875 659.699219 747.671875 678.0625 C 747.601562 680.875 747.25 683.644531 746.609375 686.382812 C 745.96875 689.121094 745.058594 691.761719 743.875 694.3125 C 742.695312 696.859375 741.265625 699.261719 739.585938 701.519531 C 737.910156 703.773438 736.023438 705.835938 733.921875 707.699219 C 736.824219 711.71875 739.089844 716.070312 740.71875 720.75 C 742.347656 725.433594 743.269531 730.25 743.488281 735.203125 C 743.574219 736.226562 743.574219 737.253906 743.574219 738.191406 C 743.527344 739.332031 743.40625 740.464844 743.214844 741.59375 C 743.023438 742.71875 742.761719 743.828125 742.425781 744.917969 C 742.09375 746.011719 741.691406 747.078125 741.21875 748.117188 C 740.75 749.160156 740.214844 750.164062 739.613281 751.136719 C 739.015625 752.109375 738.355469 753.039062 737.636719 753.925781 C 736.917969 754.8125 736.144531 755.652344 735.320312 756.441406 C 734.492188 757.230469 733.621094 757.960938 732.699219 758.636719 C 731.78125 759.316406 730.820312 759.929688 729.820312 760.484375 Z M 729.820312 760.484375 " fill-opacity="1" fill-rule="nonzero"/><path fill="#ffab91" d="M 779.019531 757.75 C 767.023438 771.25 753.671875 783.238281 738.960938 793.707031 C 734.476562 797.019531 729.835938 800.09375 725.039062 802.933594 C 715.0625 809.140625 704.671875 814.550781 693.863281 819.160156 C 683.25 823.644531 672.371094 827.375 661.238281 830.347656 C 655.34375 831.886719 649.453125 833.253906 643.386719 834.277344 C 629.050781 836.953125 614.585938 838.292969 600 838.292969 C 585.414062 838.292969 570.949219 836.953125 556.613281 834.277344 C 550.546875 833.253906 544.65625 831.886719 538.761719 830.347656 C 527.628906 827.375 516.75 823.644531 506.136719 819.160156 C 495.328125 814.550781 484.9375 809.140625 474.960938 802.933594 C 470.164062 800.09375 465.523438 797.019531 461.039062 793.707031 C 446.328125 783.238281 432.976562 771.25 420.980469 757.75 C 423.085938 754.535156 425.660156 751.757812 428.707031 749.414062 C 431.753906 747.070312 435.101562 745.292969 438.746094 744.085938 L 456.511719 738.277344 L 487.6875 727.941406 L 501.863281 723.246094 L 509.550781 720.769531 L 509.550781 720.683594 L 533.550781 712.824219 L 548.839844 707.785156 L 565.578125 702.234375 L 565.835938 678.148438 L 565.835938 678.0625 L 634.164062 678.0625 L 634.164062 701.980469 L 651.160156 707.617188 L 666.449219 712.65625 L 698.050781 723.160156 L 743.574219 738.191406 L 761.253906 744.085938 C 764.898438 745.292969 768.246094 747.070312 771.292969 749.414062 C 774.339844 751.757812 776.914062 754.535156 779.019531 757.75 Z M 779.019531 757.75 " fill-opacity="1" fill-rule="nonzero"/><path fill="#212121" d="M 779.019531 757.75 C 767.023438 771.25 753.671875 783.238281 738.960938 793.707031 C 734.476562 797.019531 729.835938 800.09375 725.039062 802.933594 C 715.0625 809.140625 704.671875 814.550781 693.863281 819.160156 C 683.25 823.644531 672.371094 827.375 661.238281 830.347656 C 655.34375 831.886719 649.453125 833.253906 643.386719 834.277344 C 629.050781 836.953125 614.585938 838.292969 600 838.292969 C 585.414062 838.292969 570.949219 836.953125 556.613281 834.277344 C 550.546875 833.253906 544.65625 831.886719 538.761719 830.347656 C 527.628906 827.375 516.75 823.644531 506.136719 819.160156 C 495.328125 814.550781 484.9375 809.140625 474.960938 802.933594 C 470.164062 800.09375 465.523438 797.019531 461.039062 793.707031 C 446.328125 783.238281 432.976562 771.25 420.980469 757.75 C 423.085938 754.535156 425.660156 751.757812 428.707031 749.414062 C 431.753906 747.070312 435.101562 745.292969 438.746094 744.085938 L 456.511719 738.277344 L 487.6875 727.941406 L 501.863281 723.246094 L 509.550781 720.769531 L 509.550781 720.683594 L 533.550781 712.824219 L 531.929688 755.699219 L 531.585938 765.609375 L 533.296875 766.207031 L 548.582031 771.585938 L 600 789.609375 L 651.417969 771.585938 L 666.703125 766.207031 L 668.414062 765.609375 L 668.070312 756.726562 L 666.449219 712.65625 L 698.050781 723.160156 L 743.574219 738.191406 L 761.253906 744.085938 C 764.898438 745.292969 768.246094 747.070312 771.292969 749.414062 C 774.339844 751.757812 776.914062 754.535156 779.019531 757.75 Z M 779.019531 757.75 " fill-opacity="1" fill-rule="nonzero"/><path fill="#cbcfd1" d="M 664.738281 818.476562 C 663.714844 822.578125 662.605469 826.503906 661.238281 830.347656 C 655.34375 831.886719 649.453125 833.253906 643.386719 834.277344 C 629.050781 836.953125 614.585938 838.292969 600 838.292969 C 585.414062 838.292969 570.949219 836.953125 556.613281 834.277344 C 550.546875 833.253906 544.65625 831.886719 538.761719 830.347656 C 537.394531 826.503906 536.285156 822.578125 535.261719 818.476562 C 527.828125 787.472656 530.820312 772.441406 533.296875 766.207031 C 533.753906 764.902344 534.410156 763.707031 535.261719 762.621094 L 544.738281 760.484375 L 548.15625 761.851562 C 558.234375 766.035156 587.53125 777.566406 600 777.566406 C 612.46875 777.566406 641.765625 766.035156 651.84375 761.851562 L 655.261719 760.484375 L 664.742188 762.621094 C 665.589844 763.707031 666.246094 764.902344 666.703125 766.207031 C 669.179688 772.441406 672.171875 787.472656 664.738281 818.476562 Z M 664.738281 818.476562 " fill-opacity="1" fill-rule="nonzero"/><path fill="#464646" d="M 548.582031 771.585938 C 549.953125 792.652344 552.628906 813.546875 556.613281 834.277344 C 550.546875 833.253906 544.65625 831.886719 538.761719 830.347656 C 527.628906 827.375 516.75 823.644531 506.136719 819.160156 L 498.535156 811.386719 L 511.175781 778.503906 L 496.058594 765.609375 L 484.78125 756.042969 L 488.625 748.613281 L 501.863281 723.246094 L 509.550781 720.769531 L 509.550781 720.683594 L 533.550781 712.824219 L 548.839844 707.785156 C 547.574219 723.765625 547.234375 739.765625 547.816406 755.785156 C 547.898438 757.75 547.984375 759.800781 548.15625 761.851562 C 548.242188 765.097656 548.414062 768.339844 548.582031 771.585938 Z M 548.582031 771.585938 " fill-opacity="1" fill-rule="nonzero"/><path fill="#464646" d="M 703.941406 765.609375 L 688.824219 778.503906 L 701.464844 811.386719 L 693.863281 819.160156 C 683.25 823.644531 672.371094 827.375 661.238281 830.347656 C 655.34375 831.886719 649.453125 833.253906 643.386719 834.277344 C 647.371094 813.546875 650.046875 792.652344 651.417969 771.585938 C 651.585938 768.339844 651.757812 765.097656 651.84375 761.851562 C 652.015625 760.058594 652.097656 758.347656 652.097656 756.640625 C 652.75 740.28125 652.4375 723.9375 651.160156 707.617188 L 666.449219 712.65625 L 698.050781 723.160156 L 715.21875 756.042969 Z M 703.941406 765.609375 " fill-opacity="1" fill-rule="nonzero"/><path fill="#ea7760" d="M 727.601562 582.0625 C 727.597656 580.957031 727.542969 579.851562 727.433594 578.75 C 727.324219 577.648438 727.164062 576.554688 726.949219 575.46875 C 726.730469 574.382812 726.464844 573.308594 726.144531 572.25 C 725.824219 571.191406 725.453125 570.148438 725.035156 569.125 C 724.613281 568.101562 724.140625 567.101562 723.625 566.121094 C 723.105469 565.144531 722.542969 564.191406 721.929688 563.269531 C 721.320312 562.347656 720.664062 561.453125 719.96875 560.59375 C 719.269531 559.734375 718.53125 558.910156 717.753906 558.121094 C 716.976562 557.335938 716.164062 556.585938 715.3125 555.875 C 714.464844 555.167969 713.582031 554.5 712.667969 553.878906 C 711.75 553.253906 710.808594 552.675781 709.835938 552.144531 C 708.867188 551.613281 707.871094 551.132812 706.851562 550.695312 C 705.835938 550.261719 704.796875 549.875 703.742188 549.542969 C 702.6875 549.207031 701.617188 548.925781 700.535156 548.695312 C 699.453125 548.464844 698.359375 548.289062 697.261719 548.164062 C 696.160156 548.039062 695.058594 547.96875 693.949219 547.953125 L 693.949219 547.898438 L 676.867188 547.898438 L 676.867188 616.226562 L 693.949219 616.226562 L 693.949219 616.175781 C 695.058594 616.160156 696.160156 616.089844 697.261719 615.964844 C 698.359375 615.839844 699.453125 615.664062 700.535156 615.433594 C 701.617188 615.203125 702.6875 614.917969 703.742188 614.585938 C 704.796875 614.25 705.835938 613.867188 706.851562 613.433594 C 707.871094 612.996094 708.867188 612.515625 709.835938 611.980469 C 710.808594 611.449219 711.75 610.875 712.667969 610.25 C 713.582031 609.625 714.464844 608.960938 715.3125 608.25 C 716.164062 607.542969 716.976562 606.792969 717.753906 606.003906 C 718.53125 605.21875 719.269531 604.394531 719.96875 603.535156 C 720.664062 602.671875 721.320312 601.78125 721.929688 600.859375 C 722.542969 599.933594 723.105469 598.984375 723.625 598.007812 C 724.140625 597.027344 724.613281 596.027344 725.035156 595.003906 C 725.453125 593.980469 725.824219 592.9375 726.144531 591.878906 C 726.464844 590.816406 726.730469 589.746094 726.949219 588.660156 C 727.164062 587.574219 727.324219 586.480469 727.433594 585.378906 C 727.542969 584.277344 727.597656 583.171875 727.601562 582.0625 Z M 727.601562 582.0625 " fill-opacity="1" fill-rule="nonzero"/><path fill="#ea7760" d="M 506.050781 547.898438 C 504.929688 547.898438 503.816406 547.957031 502.703125 548.066406 C 501.585938 548.175781 500.480469 548.339844 499.386719 548.558594 C 498.289062 548.773438 497.203125 549.046875 496.132812 549.371094 C 495.0625 549.695312 494.007812 550.074219 492.976562 550.5 C 491.941406 550.929688 490.933594 551.40625 489.945312 551.933594 C 488.957031 552.460938 488 553.035156 487.070312 553.65625 C 486.140625 554.28125 485.242188 554.945312 484.375 555.65625 C 483.511719 556.363281 482.683594 557.117188 481.890625 557.90625 C 481.101562 558.699219 480.351562 559.527344 479.640625 560.390625 C 478.929688 561.253906 478.265625 562.152344 477.644531 563.082031 C 477.023438 564.015625 476.449219 564.972656 475.921875 565.960938 C 475.394531 566.945312 474.914062 567.957031 474.488281 568.988281 C 474.058594 570.023438 473.683594 571.074219 473.355469 572.148438 C 473.03125 573.21875 472.761719 574.300781 472.542969 575.398438 C 472.324219 576.496094 472.160156 577.601562 472.050781 578.714844 C 471.941406 579.828125 471.886719 580.945312 471.886719 582.0625 C 471.886719 583.183594 471.941406 584.300781 472.050781 585.414062 C 472.160156 586.527344 472.324219 587.632812 472.542969 588.730469 C 472.761719 589.828125 473.03125 590.910156 473.355469 591.980469 C 473.683594 593.050781 474.058594 594.105469 474.488281 595.136719 C 474.914062 596.171875 475.394531 597.183594 475.921875 598.167969 C 476.449219 599.15625 477.023438 600.113281 477.644531 601.042969 C 478.265625 601.976562 478.929688 602.871094 479.640625 603.738281 C 480.351562 604.601562 481.101562 605.429688 481.890625 606.222656 C 482.683594 607.011719 483.511719 607.761719 484.375 608.472656 C 485.242188 609.183594 486.140625 609.847656 487.070312 610.46875 C 488 611.089844 488.957031 611.667969 489.945312 612.195312 C 490.933594 612.722656 491.941406 613.199219 492.976562 613.628906 C 494.007812 614.054688 495.0625 614.433594 496.132812 614.757812 C 497.203125 615.082031 498.289062 615.351562 499.386719 615.570312 C 500.480469 615.789062 501.585938 615.953125 502.703125 616.0625 C 503.816406 616.171875 504.929688 616.226562 506.050781 616.226562 L 523.132812 616.226562 L 523.132812 547.898438 Z M 506.050781 547.898438 " fill-opacity="1" fill-rule="nonzero"/><path fill="#ea7760" d="M 634.164062 696.203125 L 634.164062 678.09375 L 565.835938 678.09375 L 565.835938 696.203125 C 571.351562 698.003906 576.972656 699.359375 582.703125 700.269531 C 588.433594 701.179688 594.199219 701.636719 600 701.636719 C 605.800781 701.636719 611.566406 701.179688 617.296875 700.269531 C 623.027344 699.359375 628.648438 698.003906 634.164062 696.203125 Z M 634.164062 696.203125 " fill-opacity="1" fill-rule="nonzero"/><path fill="#ffab91" d="M 506.050781 547.898438 C 506.050781 496.011719 514.589844 453.949219 600 453.949219 C 685.410156 453.949219 693.949219 496.011719 693.949219 547.898438 L 693.949219 590.605469 C 693.949219 592.140625 693.914062 593.679688 693.835938 595.214844 C 693.761719 596.75 693.648438 598.285156 693.496094 599.8125 C 693.347656 601.34375 693.160156 602.871094 692.933594 604.390625 C 692.707031 605.910156 692.445312 607.425781 692.144531 608.933594 C 691.84375 610.441406 691.507812 611.941406 691.132812 613.433594 C 690.761719 614.925781 690.351562 616.40625 689.90625 617.878906 C 689.457031 619.347656 688.976562 620.808594 688.457031 622.253906 C 687.941406 623.703125 687.386719 625.136719 686.796875 626.558594 C 686.210938 627.980469 685.585938 629.382812 684.929688 630.773438 C 684.273438 632.164062 683.582031 633.535156 682.855469 634.894531 C 682.132812 636.25 681.375 637.585938 680.582031 638.90625 C 679.792969 640.222656 678.972656 641.523438 678.117188 642.800781 C 677.261719 644.078125 676.378906 645.335938 675.460938 646.570312 C 674.546875 647.804688 673.601562 649.019531 672.625 650.207031 C 671.648438 651.394531 670.644531 652.558594 669.613281 653.699219 C 668.578125 654.835938 667.519531 655.949219 666.433594 657.039062 C 665.34375 658.125 664.230469 659.183594 663.09375 660.21875 C 661.953125 661.25 660.789062 662.253906 659.601562 663.230469 C 658.414062 664.203125 657.199219 665.152344 655.964844 666.066406 C 654.730469 666.980469 653.472656 667.867188 652.195312 668.722656 C 650.917969 669.574219 649.617188 670.398438 648.300781 671.1875 C 646.980469 671.980469 645.644531 672.738281 644.289062 673.460938 C 642.933594 674.1875 641.558594 674.878906 640.167969 675.535156 C 638.777344 676.191406 637.375 676.816406 635.953125 677.402344 C 634.53125 677.992188 633.097656 678.546875 631.652344 679.0625 C 630.203125 679.582031 628.742188 680.0625 627.273438 680.507812 C 625.800781 680.957031 624.320312 681.367188 622.828125 681.738281 C 621.335938 682.113281 619.835938 682.449219 618.328125 682.75 C 616.820312 683.050781 615.304688 683.3125 613.785156 683.539062 C 612.265625 683.765625 610.738281 683.953125 609.207031 684.101562 C 607.679688 684.253906 606.144531 684.367188 604.609375 684.441406 C 603.074219 684.515625 601.539062 684.554688 600 684.554688 C 598.460938 684.554688 596.925781 684.515625 595.390625 684.441406 C 593.855469 684.367188 592.320312 684.253906 590.792969 684.101562 C 589.261719 683.953125 587.734375 683.765625 586.214844 683.539062 C 584.695312 683.3125 583.179688 683.050781 581.671875 682.75 C 580.164062 682.449219 578.664062 682.113281 577.171875 681.738281 C 575.679688 681.367188 574.199219 680.957031 572.726562 680.507812 C 571.257812 680.0625 569.796875 679.582031 568.347656 679.0625 C 566.902344 678.546875 565.46875 677.992188 564.046875 677.402344 C 562.625 676.816406 561.222656 676.191406 559.832031 675.535156 C 558.441406 674.878906 557.066406 674.1875 555.710938 673.460938 C 554.355469 672.738281 553.019531 671.980469 551.699219 671.1875 C 550.382812 670.398438 549.082031 669.574219 547.804688 668.722656 C 546.527344 667.867188 545.269531 666.980469 544.035156 666.066406 C 542.800781 665.152344 541.585938 664.203125 540.398438 663.230469 C 539.210938 662.253906 538.046875 661.25 536.90625 660.21875 C 535.769531 659.183594 534.65625 658.125 533.566406 657.039062 C 532.480469 655.949219 531.421875 654.835938 530.386719 653.699219 C 529.355469 652.558594 528.351562 651.394531 527.375 650.207031 C 526.398438 649.019531 525.453125 647.804688 524.539062 646.570312 C 523.621094 645.335938 522.738281 644.078125 521.882812 642.800781 C 521.027344 641.523438 520.207031 640.222656 519.417969 638.90625 C 518.625 637.585938 517.867188 636.25 517.144531 634.894531 C 516.417969 633.535156 515.726562 632.164062 515.070312 630.773438 C 514.414062 629.382812 513.789062 627.980469 513.203125 626.558594 C 512.613281 625.136719 512.058594 623.703125 511.542969 622.253906 C 511.023438 620.808594 510.542969 619.347656 510.09375 617.878906 C 509.648438 616.40625 509.238281 614.925781 508.867188 613.433594 C 508.492188 611.941406 508.15625 610.441406 507.855469 608.933594 C 507.554688 607.425781 507.292969 605.910156 507.066406 604.390625 C 506.839844 602.871094 506.652344 601.34375 506.503906 599.8125 C 506.351562 598.285156 506.238281 596.75 506.164062 595.214844 C 506.085938 593.679688 506.050781 592.140625 506.050781 590.605469 Z M 506.050781 547.898438 " fill-opacity="1" fill-rule="nonzero"/><path fill="#b27232" d="M 693.949219 542.347656 C 693.945312 542.28125 693.914062 542.222656 693.863281 542.179688 L 693.863281 542.007812 C 693.097656 538.417969 686.433594 509.464844 676.867188 503.230469 C 656.882812 490.164062 663.714844 502.546875 629.464844 488.113281 C 626.988281 487.089844 624.855469 485.980469 622.890625 484.953125 C 619.117188 489.457031 614.886719 493.484375 610.199219 497.03125 C 605.515625 500.578125 600.492188 503.554688 595.132812 505.964844 C 563.53125 521.082031 532.015625 510.0625 514.164062 527.914062 C 511.277344 530.691406 508.628906 533.679688 506.21875 536.882812 C 503.28125 540.578125 500.746094 544.535156 498.621094 548.753906 C 493.890625 558.238281 490.816406 568.230469 489.394531 578.734375 C 487.515625 590.09375 492.8125 602.648438 496.226562 614.777344 C 497.921875 619.996094 498.863281 625.347656 499.046875 630.832031 C 499.046875 647.316406 489.394531 662.433594 492.214844 681.652344 C 494.605469 698.21875 507.160156 701.464844 509.550781 720.683594 L 509.550781 720.769531 C 510.058594 724.199219 510.199219 727.644531 509.980469 731.101562 C 509.835938 735.386719 509.171875 739.589844 507.984375 743.707031 C 506.800781 747.828125 505.128906 751.738281 502.976562 755.445312 C 500.933594 759.011719 498.628906 762.402344 496.058594 765.609375 C 489.714844 772.699219 484.304688 780.445312 479.828125 788.839844 C 477.746094 793.378906 476.125 798.074219 474.960938 802.933594 C 470.164062 800.09375 465.523438 797.019531 461.039062 793.707031 C 462.34375 782.15625 465.390625 771.078125 470.179688 760.484375 C 469.179688 759.9375 468.222656 759.328125 467.300781 758.65625 C 466.382812 757.984375 465.511719 757.257812 464.6875 756.472656 C 463.863281 755.6875 463.089844 754.855469 462.375 753.972656 C 461.65625 753.085938 461 752.160156 460.402344 751.191406 C 459.808594 750.222656 459.277344 749.21875 458.808594 748.179688 C 458.34375 747.140625 457.945312 746.078125 457.617188 744.988281 C 457.289062 743.898438 457.03125 742.792969 456.847656 741.667969 C 456.664062 740.546875 456.550781 739.414062 456.511719 738.277344 C 456.425781 737.253906 456.425781 736.226562 456.511719 735.203125 C 456.730469 730.25 457.652344 725.433594 459.28125 720.75 C 460.910156 716.070312 463.175781 711.71875 466.078125 707.699219 C 463.976562 705.835938 462.089844 703.773438 460.414062 701.519531 C 458.734375 699.261719 457.304688 696.859375 456.125 694.3125 C 454.941406 691.761719 454.03125 689.121094 453.390625 686.382812 C 452.75 683.644531 452.398438 680.875 452.328125 678.0625 C 452.328125 659.699219 461.980469 647.316406 464.710938 625.367188 C 467.445312 603.417969 467.1875 528.683594 479.828125 481.28125 C 490.761719 440.113281 525.097656 412.015625 556.699219 411.246094 C 593.339844 410.304688 614.859375 418.589844 625.539062 430.292969 C 627.589844 432.453125 629.304688 434.855469 630.683594 437.496094 C 632.0625 440.136719 633.050781 442.917969 633.652344 445.835938 C 651.5 449.59375 681.992188 457.964844 687.800781 472.3125 C 696 492.898438 693.949219 542.347656 693.949219 542.347656 Z M 693.949219 542.347656 " fill-opacity="1" fill-rule="nonzero"/></svg>